<svg xmlns="http://www.w3.org/2000/svg" version="1.1" xmlns:xlink="http://www.w3.org/1999/xlink" xmlns:svgjs="http://svgjs.com/svgjs" width="1440" height="560" preserveAspectRatio="none" viewBox="0 0 1440 560"><g mask="url(&quot;#SvgjsMask1018&quot;)" fill="none"><rect width="1440" height="560" x="0" y="0" fill="rgba(243, 191, 153, 1)"></rect><path d="M0,463.409C85.859,471.936,159.444,407.69,232.013,361.019C304.559,314.363,384.278,270.305,421.352,192.425C458.649,114.075,454.451,21.884,433.544,-62.334C413.88,-141.545,372.973,-217.749,307.447,-266.405C247.258,-311.098,162.679,-288.76,92.632,-315.474C13.63,-345.603,-43.111,-443.683,-126.857,-432.034C-209.149,-420.587,-250.446,-326.742,-300.9,-260.732C-348.426,-198.553,-402.088,-136.865,-411.821,-59.211C-421.48,17.855,-391.312,93.562,-353.834,161.59C-318.33,226.034,-260.151,269.951,-204.173,317.7C-139.245,373.083,-84.922,454.975,0,463.409" fill="#eb9352"></path><path d="M1440 1101.73C1538.698 1084.463 1628.99 1036.81 1703.067 969.341 1769.564 908.7760000000001 1783.958 814.168 1836.152 740.917 1905.117 644.128 2071.791 589.186 2058.051 471.13800000000003 2044.454 354.31600000000003 1879.3809999999999 328.78999999999996 1780.731 264.755 1709.74 218.675 1640.862 176.00799999999998 1560.855 148.40499999999997 1477.187 119.53899999999999 1393.332 93.35000000000002 1305.128 100.66899999999998 1202.51 109.18400000000003 1095.892 127.27100000000002 1017.068 193.527 932.5840000000001 264.541 883.17 368.846 858.191 476.348 831.741 590.18 826.115 711.929 871.596 819.581 917.696 928.6949999999999 1004.187 1020.376 1110.287 1073.0430000000001 1211.145 1123.108 1329.084 1121.134 1440 1101.73" fill="#fbece0"></path></g><defs><mask id="SvgjsMask1018"><rect width="1440" height="560" fill="#ffffff"></rect></mask></defs></svg>