<svg xmlns="http://www.w3.org/2000/svg" version="1.1" xmlns:xlink="http://www.w3.org/1999/xlink" xmlns:svgjs="http://svgjs.com/svgjs" width="1440" height="560" preserveAspectRatio="none" viewBox="0 0 1440 560"><g mask="url(&quot;#SvgjsMask1986&quot;)" fill="none"><rect width="1440" height="560" x="0" y="0" fill="url(#SvgjsLinearGradient1987)"></rect><g mask="url(&quot;#SvgjsMask1988&quot;)"><path d="M569.5 314.5L586.5 297.5L603.5 297.5L620.5 297.5L637.5 297.5M93.5 280.5L110.5 280.5L127.5 280.5L144.5 280.5M654.5 314.5L671.5 314.5M59.5 280.5L76.5 297.5L93.5 297.5M552.5 297.5L569.5 297.5M535.5 297.5L552.5 280.5L569.5 280.5L586.5 280.5L603.5 280.5L620.5 280.5L637.5 280.5L654.5 280.5L671.5 263.5L688.5 263.5M-8.5 280.5L8.5 280.5L25.5 280.5L42.5 280.5L59.5 280.5L76.5 280.5L93.5 280.5L110.5 297.5L127.5 297.5L144.5 297.5L161.5 297.5L178.5 297.5L195.5 297.5L212.5 297.5L229.5 297.5L246.5 297.5L263.5 297.5L280.5 297.5L297.5 297.5L314.5 297.5L331.5 297.5L348.5 297.5L365.5 297.5L382.5 297.5L399.5 297.5L416.5 297.5L433.5 297.5L450.5 297.5L467.5 297.5L484.5 297.5L501.5 297.5L518.5 297.5L535.5 297.5L552.5 297.5L569.5 314.5L586.5 314.5L603.5 314.5L620.5 314.5L637.5 314.5L654.5 314.5L671.5 331.5L688.5 331.5" stroke="rgba(243, 191, 153, 1)" stroke-width="2.83"></path><path d="M684.25 331.5 a4.25 4.25 0 1 0 8.5 0 a4.25 4.25 0 1 0 -8.5 0zM633.25 297.5 a4.25 4.25 0 1 0 8.5 0 a4.25 4.25 0 1 0 -8.5 0zM140.25 280.5 a4.25 4.25 0 1 0 8.5 0 a4.25 4.25 0 1 0 -8.5 0zM667.25 314.5 a4.25 4.25 0 1 0 8.5 0 a4.25 4.25 0 1 0 -8.5 0zM89.25 297.5 a4.25 4.25 0 1 0 8.5 0 a4.25 4.25 0 1 0 -8.5 0zM565.25 297.5 a4.25 4.25 0 1 0 8.5 0 a4.25 4.25 0 1 0 -8.5 0zM684.25 263.5 a4.25 4.25 0 1 0 8.5 0 a4.25 4.25 0 1 0 -8.5 0z" fill="rgba(243, 191, 153, 1)"></path><path d="M586.5 263.5L603.5 246.5L620.5 246.5L637.5 246.5M484.5 280.5L501.5 263.5L518.5 263.5L535.5 246.5L552.5 246.5L569.5 246.5M229.5 280.5L246.5 263.5L263.5 263.5L280.5 246.5L297.5 246.5M212.5 280.5L229.5 263.5L246.5 246.5L263.5 246.5M416.5 280.5L433.5 263.5M399.5 280.5L416.5 263.5M314.5 280.5L331.5 263.5L348.5 263.5L365.5 263.5M161.5 263.5L178.5 263.5L195.5 263.5L212.5 263.5M382.5 280.5L399.5 263.5M-8.5 263.5L8.5 263.5L25.5 263.5L42.5 263.5L59.5 263.5L76.5 263.5L93.5 263.5L110.5 263.5L127.5 263.5L144.5 263.5L161.5 263.5L178.5 280.5L195.5 280.5L212.5 280.5L229.5 280.5L246.5 280.5L263.5 280.5L280.5 280.5L297.5 280.5L314.5 280.5L331.5 280.5L348.5 280.5L365.5 280.5L382.5 280.5L399.5 280.5L416.5 280.5L433.5 280.5L450.5 280.5L467.5 280.5L484.5 280.5L501.5 280.5L518.5 280.5L535.5 263.5L552.5 263.5L569.5 263.5L586.5 263.5L603.5 263.5L620.5 263.5" stroke="rgba(243, 191, 153, 1)" stroke-width="2.83"></path><path d="M616.25 263.5 a4.25 4.25 0 1 0 8.5 0 a4.25 4.25 0 1 0 -8.5 0zM633.25 246.5 a4.25 4.25 0 1 0 8.5 0 a4.25 4.25 0 1 0 -8.5 0zM565.25 246.5 a4.25 4.25 0 1 0 8.5 0 a4.25 4.25 0 1 0 -8.5 0zM293.25 246.5 a4.25 4.25 0 1 0 8.5 0 a4.25 4.25 0 1 0 -8.5 0zM259.25 246.5 a4.25 4.25 0 1 0 8.5 0 a4.25 4.25 0 1 0 -8.5 0zM429.25 263.5 a4.25 4.25 0 1 0 8.5 0 a4.25 4.25 0 1 0 -8.5 0zM412.25 263.5 a4.25 4.25 0 1 0 8.5 0 a4.25 4.25 0 1 0 -8.5 0zM361.25 263.5 a4.25 4.25 0 1 0 8.5 0 a4.25 4.25 0 1 0 -8.5 0zM208.25 263.5 a4.25 4.25 0 1 0 8.5 0 a4.25 4.25 0 1 0 -8.5 0zM395.25 263.5 a4.25 4.25 0 1 0 8.5 0 a4.25 4.25 0 1 0 -8.5 0z" fill="rgba(243, 191, 153, 1)"></path><path d="M875.5 348.5L892.5 331.5L909.5 331.5L926.5 331.5L943.5 331.5L960.5 331.5L977.5 331.5L994.5 331.5L1011.5 331.5L1028.5 331.5L1045.5 331.5L1062.5 331.5L1079.5 331.5L1096.5 331.5L1113.5 331.5L1130.5 331.5L1147.5 331.5L1164.5 331.5L1181.5 331.5L1198.5 331.5L1215.5 331.5L1232.5 348.5M42.5 297.5L59.5 297.5M773.5 348.5L790.5 331.5L807.5 331.5L824.5 331.5L841.5 331.5L858.5 331.5L875.5 314.5L892.5 314.5L909.5 314.5L926.5 314.5L943.5 314.5L960.5 314.5L977.5 314.5L994.5 314.5L1011.5 314.5L1028.5 314.5L1045.5 314.5L1062.5 314.5L1079.5 314.5L1096.5 314.5M161.5 314.5L178.5 331.5L195.5 331.5M416.5 314.5L433.5 331.5L450.5 331.5M1130.5 365.5L1147.5 348.5L1164.5 348.5M943.5 365.5L960.5 348.5L977.5 348.5L994.5 348.5L1011.5 348.5L1028.5 348.5L1045.5 348.5L1062.5 348.5M263.5 314.5L280.5 331.5L297.5 331.5L314.5 331.5L331.5 331.5M688.5 348.5L705.5 365.5M399.5 314.5L416.5 331.5M501.5 314.5L518.5 331.5L535.5 331.5L552.5 331.5M1096.5 365.5L1113.5 348.5L1130.5 348.5M467.5 314.5L484.5 331.5L501.5 331.5M705.5 348.5L722.5 331.5L739.5 331.5L756.5 331.5L773.5 331.5M246.5 314.5L263.5 331.5L280.5 348.5L297.5 348.5M25.5 297.5L42.5 314.5M926.5 365.5L943.5 348.5M-8.5 297.5L8.5 297.5L25.5 297.5L42.5 297.5L59.5 314.5L76.5 314.5L93.5 314.5L110.5 314.5L127.5 314.5L144.5 314.5L161.5 314.5L178.5 314.5L195.5 314.5L212.5 314.5L229.5 314.5L246.5 314.5L263.5 314.5L280.5 314.5L297.5 314.5L314.5 314.5L331.5 314.5L348.5 314.5L365.5 314.5L382.5 314.5L399.5 314.5L416.5 314.5L433.5 314.5L450.5 314.5L467.5 314.5L484.5 314.5L501.5 314.5L518.5 314.5L535.5 314.5L552.5 314.5L569.5 331.5L586.5 331.5L603.5 331.5L620.5 331.5L637.5 331.5L654.5 348.5L671.5 348.5L688.5 348.5L705.5 348.5L722.5 348.5L739.5 348.5L756.5 348.5L773.5 348.5L790.5 348.5L807.5 348.5L824.5 348.5L841.5 348.5L858.5 348.5L875.5 348.5L892.5 348.5L909.5 348.5L926.5 365.5L943.5 365.5L960.5 365.5L977.5 365.5L994.5 365.5L1011.5 365.5L1028.5 365.5L1045.5 365.5L1062.5 365.5L1079.5 365.5L1096.5 365.5L1113.5 365.5L1130.5 365.5L1147.5 365.5" stroke="rgba(0, 255, 239, 1)" stroke-width="2.83"></path><path d="M1143.25 365.5 a4.25 4.25 0 1 0 8.5 0 a4.25 4.25 0 1 0 -8.5 0zM1228.25 348.5 a4.25 4.25 0 1 0 8.5 0 a4.25 4.25 0 1 0 -8.5 0zM55.25 297.5 a4.25 4.25 0 1 0 8.5 0 a4.25 4.25 0 1 0 -8.5 0zM1092.25 314.5 a4.25 4.25 0 1 0 8.5 0 a4.25 4.25 0 1 0 -8.5 0zM191.25 331.5 a4.25 4.25 0 1 0 8.5 0 a4.25 4.25 0 1 0 -8.5 0zM446.25 331.5 a4.25 4.25 0 1 0 8.5 0 a4.25 4.25 0 1 0 -8.5 0zM1160.25 348.5 a4.25 4.25 0 1 0 8.5 0 a4.25 4.25 0 1 0 -8.5 0zM1058.25 348.5 a4.25 4.25 0 1 0 8.5 0 a4.25 4.25 0 1 0 -8.5 0zM327.25 331.5 a4.25 4.25 0 1 0 8.5 0 a4.25 4.25 0 1 0 -8.5 0zM701.25 365.5 a4.25 4.25 0 1 0 8.5 0 a4.25 4.25 0 1 0 -8.5 0zM412.25 331.5 a4.25 4.25 0 1 0 8.5 0 a4.25 4.25 0 1 0 -8.5 0zM548.25 331.5 a4.25 4.25 0 1 0 8.5 0 a4.25 4.25 0 1 0 -8.5 0zM1126.25 348.5 a4.25 4.25 0 1 0 8.5 0 a4.25 4.25 0 1 0 -8.5 0zM497.25 331.5 a4.25 4.25 0 1 0 8.5 0 a4.25 4.25 0 1 0 -8.5 0zM769.25 331.5 a4.25 4.25 0 1 0 8.5 0 a4.25 4.25 0 1 0 -8.5 0zM293.25 348.5 a4.25 4.25 0 1 0 8.5 0 a4.25 4.25 0 1 0 -8.5 0zM38.25 314.5 a4.25 4.25 0 1 0 8.5 0 a4.25 4.25 0 1 0 -8.5 0zM939.25 348.5 a4.25 4.25 0 1 0 8.5 0 a4.25 4.25 0 1 0 -8.5 0z" fill="rgba(0, 255, 239, 1)"></path><path d="M314.5 229.5L331.5 246.5M1130.5 212.5L1147.5 195.5L1164.5 195.5L1181.5 195.5L1198.5 195.5L1215.5 212.5L1232.5 212.5M365.5 246.5L382.5 229.5L399.5 229.5L416.5 229.5L433.5 229.5M484.5 229.5L501.5 246.5L518.5 246.5M297.5 229.5L314.5 212.5L331.5 212.5M195.5 246.5L212.5 229.5L229.5 212.5M722.5 229.5L739.5 246.5L756.5 246.5M161.5 246.5L178.5 229.5M212.5 246.5L229.5 246.5M76.5 246.5L93.5 229.5L110.5 229.5L127.5 229.5L144.5 229.5L161.5 229.5L178.5 212.5L195.5 212.5L212.5 212.5M909.5 212.5L926.5 195.5L943.5 195.5L960.5 195.5L977.5 195.5M994.5 212.5L1011.5 195.5L1028.5 195.5L1045.5 195.5L1062.5 195.5L1079.5 195.5L1096.5 195.5L1113.5 195.5L1130.5 195.5M790.5 229.5L807.5 246.5L824.5 246.5M1062.5 212.5L1079.5 229.5L1096.5 229.5L1113.5 229.5L1130.5 246.5L1147.5 246.5L1164.5 246.5L1181.5 246.5M535.5 229.5L552.5 212.5L569.5 212.5L586.5 212.5L603.5 212.5L620.5 212.5L637.5 212.5L654.5 212.5L671.5 212.5L688.5 212.5L705.5 212.5L722.5 212.5L739.5 212.5L756.5 212.5M807.5 229.5L824.5 212.5L841.5 212.5L858.5 212.5M654.5 229.5L671.5 246.5L688.5 246.5L705.5 246.5L722.5 246.5L739.5 263.5L756.5 280.5L773.5 280.5L790.5 263.5L807.5 263.5L824.5 280.5L841.5 280.5L858.5 280.5L875.5 280.5L892.5 280.5L909.5 280.5L926.5 280.5L943.5 280.5L960.5 280.5L977.5 280.5L994.5 280.5L1011.5 280.5L1028.5 280.5L1045.5 280.5L1062.5 280.5L1079.5 280.5L1096.5 297.5L1113.5 297.5L1130.5 314.5L1147.5 314.5L1164.5 314.5L1181.5 314.5M-8.5 246.5L8.5 246.5L25.5 246.5L42.5 246.5L59.5 246.5L76.5 246.5L93.5 246.5L110.5 246.5L127.5 246.5L144.5 246.5L161.5 246.5L178.5 246.5L195.5 246.5L212.5 246.5L229.5 229.5L246.5 229.5L263.5 229.5L280.5 229.5L297.5 229.5L314.5 229.5L331.5 229.5L348.5 246.5L365.5 246.5L382.5 246.5L399.5 246.5L416.5 246.5L433.5 246.5L450.5 229.5L467.5 229.5L484.5 229.5L501.5 229.5L518.5 229.5L535.5 229.5L552.5 229.5L569.5 229.5L586.5 229.5L603.5 229.5L620.5 229.5L637.5 229.5L654.5 229.5L671.5 229.5L688.5 229.5L705.5 229.5L722.5 229.5L739.5 229.5L756.5 229.5L773.5 229.5L790.5 229.5L807.5 229.5L824.5 229.5L841.5 229.5L858.5 229.5L875.5 229.5L892.5 212.5L909.5 212.5L926.5 212.5L943.5 212.5L960.5 212.5L977.5 212.5L994.5 212.5L1011.5 212.5L1028.5 212.5L1045.5 212.5L1062.5 212.5L1079.5 212.5L1096.5 212.5L1113.5 212.5L1130.5 212.5L1147.5 212.5L1164.5 212.5" stroke="rgba(0, 255, 239, 1)" stroke-width="2.83"></path><path d="M1160.25 212.5 a4.25 4.25 0 1 0 8.5 0 a4.25 4.25 0 1 0 -8.5 0zM327.25 246.5 a4.25 4.25 0 1 0 8.5 0 a4.25 4.25 0 1 0 -8.5 0zM1228.25 212.5 a4.25 4.25 0 1 0 8.5 0 a4.25 4.25 0 1 0 -8.5 0zM429.25 229.5 a4.25 4.25 0 1 0 8.5 0 a4.25 4.25 0 1 0 -8.5 0zM514.25 246.5 a4.25 4.25 0 1 0 8.5 0 a4.25 4.25 0 1 0 -8.5 0zM327.25 212.5 a4.25 4.25 0 1 0 8.5 0 a4.25 4.25 0 1 0 -8.5 0zM225.25 212.5 a4.25 4.25 0 1 0 8.5 0 a4.25 4.25 0 1 0 -8.5 0zM752.25 246.5 a4.25 4.25 0 1 0 8.5 0 a4.25 4.25 0 1 0 -8.5 0zM174.25 229.5 a4.25 4.25 0 1 0 8.5 0 a4.25 4.25 0 1 0 -8.5 0zM225.25 246.5 a4.25 4.25 0 1 0 8.5 0 a4.25 4.25 0 1 0 -8.5 0zM208.25 212.5 a4.25 4.25 0 1 0 8.5 0 a4.25 4.25 0 1 0 -8.5 0zM973.25 195.5 a4.25 4.25 0 1 0 8.5 0 a4.25 4.25 0 1 0 -8.5 0zM1126.25 195.5 a4.25 4.25 0 1 0 8.5 0 a4.25 4.25 0 1 0 -8.5 0zM820.25 246.5 a4.25 4.25 0 1 0 8.5 0 a4.25 4.25 0 1 0 -8.5 0zM1177.25 246.5 a4.25 4.25 0 1 0 8.5 0 a4.25 4.25 0 1 0 -8.5 0zM752.25 212.5 a4.25 4.25 0 1 0 8.5 0 a4.25 4.25 0 1 0 -8.5 0zM854.25 212.5 a4.25 4.25 0 1 0 8.5 0 a4.25 4.25 0 1 0 -8.5 0zM1177.25 314.5 a4.25 4.25 0 1 0 8.5 0 a4.25 4.25 0 1 0 -8.5 0z" fill="rgba(0, 255, 239, 1)"></path><path d="M-8.5 314.5L8.5 314.5" stroke="rgba(0, 255, 239, 1)" stroke-width="2.83"></path><path d="M4.25 314.5 a4.25 4.25 0 1 0 8.5 0 a4.25 4.25 0 1 0 -8.5 0z" fill="rgba(0, 255, 239, 1)"></path><path d="M501.5 195.5L518.5 212.5M144.5 195.5L161.5 212.5M416.5 195.5L433.5 212.5L450.5 212.5L467.5 212.5M382.5 195.5L399.5 212.5L416.5 212.5M280.5 195.5L297.5 212.5M263.5 195.5L280.5 212.5M127.5 195.5L144.5 212.5M348.5 195.5L365.5 212.5L382.5 212.5M59.5 229.5L76.5 229.5M246.5 195.5L263.5 212.5M-8.5 229.5L8.5 229.5L25.5 229.5L42.5 229.5L59.5 229.5L76.5 212.5L93.5 195.5L110.5 195.5L127.5 195.5L144.5 195.5L161.5 195.5L178.5 195.5L195.5 195.5L212.5 195.5L229.5 195.5L246.5 195.5L263.5 195.5L280.5 195.5L297.5 195.5L314.5 195.5L331.5 195.5L348.5 195.5L365.5 195.5L382.5 195.5L399.5 195.5L416.5 195.5L433.5 195.5L450.5 195.5L467.5 195.5L484.5 195.5L501.5 195.5L518.5 195.5L535.5 195.5L552.5 195.5L569.5 195.5L586.5 195.5L603.5 195.5L620.5 195.5L637.5 195.5L654.5 195.5" stroke="rgba(0, 255, 239, 1)" stroke-width="2.83"></path><path d="M650.25 195.5 a4.25 4.25 0 1 0 8.5 0 a4.25 4.25 0 1 0 -8.5 0zM514.25 212.5 a4.25 4.25 0 1 0 8.5 0 a4.25 4.25 0 1 0 -8.5 0zM157.25 212.5 a4.25 4.25 0 1 0 8.5 0 a4.25 4.25 0 1 0 -8.5 0zM463.25 212.5 a4.25 4.25 0 1 0 8.5 0 a4.25 4.25 0 1 0 -8.5 0zM412.25 212.5 a4.25 4.25 0 1 0 8.5 0 a4.25 4.25 0 1 0 -8.5 0zM293.25 212.5 a4.25 4.25 0 1 0 8.5 0 a4.25 4.25 0 1 0 -8.5 0zM276.25 212.5 a4.25 4.25 0 1 0 8.5 0 a4.25 4.25 0 1 0 -8.5 0zM140.25 212.5 a4.25 4.25 0 1 0 8.5 0 a4.25 4.25 0 1 0 -8.5 0zM378.25 212.5 a4.25 4.25 0 1 0 8.5 0 a4.25 4.25 0 1 0 -8.5 0zM72.25 229.5 a4.25 4.25 0 1 0 8.5 0 a4.25 4.25 0 1 0 -8.5 0zM259.25 212.5 a4.25 4.25 0 1 0 8.5 0 a4.25 4.25 0 1 0 -8.5 0z" fill="rgba(0, 255, 239, 1)"></path><path d="M314.5 348.5L331.5 365.5M348.5 348.5L365.5 365.5M1062.5 382.5L1079.5 399.5M450.5 348.5L467.5 365.5M297.5 365.5L314.5 365.5L331.5 382.5L348.5 382.5L365.5 382.5L382.5 382.5L399.5 382.5L416.5 382.5L433.5 382.5L450.5 382.5L467.5 382.5L484.5 382.5L501.5 382.5L518.5 382.5L535.5 382.5L552.5 382.5L569.5 382.5L586.5 382.5L603.5 382.5L620.5 382.5M807.5 365.5L824.5 382.5L841.5 382.5L858.5 382.5L875.5 382.5M1164.5 382.5L1181.5 399.5L1198.5 416.5L1215.5 416.5L1232.5 416.5M722.5 365.5L739.5 382.5L756.5 382.5L773.5 382.5L790.5 382.5L807.5 382.5L824.5 399.5L841.5 399.5L858.5 399.5L875.5 399.5L892.5 399.5L909.5 382.5M178.5 365.5L195.5 348.5L212.5 348.5L229.5 331.5L246.5 331.5L263.5 348.5M671.5 365.5L688.5 365.5M569.5 348.5L586.5 365.5L603.5 365.5L620.5 365.5L637.5 365.5L654.5 382.5L671.5 382.5L688.5 399.5L705.5 399.5M705.5 382.5L722.5 382.5L739.5 399.5L756.5 399.5L773.5 399.5M382.5 348.5L399.5 365.5L416.5 365.5M994.5 382.5L1011.5 399.5M365.5 348.5L382.5 331.5L399.5 331.5M1096.5 382.5L1113.5 399.5L1130.5 399.5L1147.5 416.5L1164.5 416.5L1181.5 416.5L1198.5 433.5L1215.5 433.5L1232.5 433.5M484.5 348.5L501.5 365.5M535.5 348.5L552.5 365.5L569.5 365.5M-8.5 331.5L8.5 331.5L25.5 331.5L42.5 331.5L59.5 331.5L76.5 331.5L93.5 331.5L110.5 331.5L127.5 331.5L144.5 348.5L161.5 365.5L178.5 365.5L195.5 365.5L212.5 365.5L229.5 365.5L246.5 365.5L263.5 365.5L280.5 365.5L297.5 365.5L314.5 348.5L331.5 348.5L348.5 348.5L365.5 348.5L382.5 348.5L399.5 348.5L416.5 348.5L433.5 348.5L450.5 348.5L467.5 348.5L484.5 348.5L501.5 348.5L518.5 348.5L535.5 348.5L552.5 348.5L569.5 348.5L586.5 348.5L603.5 348.5L620.5 348.5L637.5 348.5L654.5 365.5L671.5 365.5L688.5 382.5L705.5 382.5L722.5 365.5L739.5 365.5L756.5 365.5L773.5 365.5L790.5 365.5L807.5 365.5L824.5 365.5L841.5 365.5L858.5 365.5L875.5 365.5L892.5 365.5L909.5 365.5L926.5 382.5L943.5 382.5L960.5 382.5L977.5 382.5L994.5 382.5L1011.5 382.5L1028.5 382.5L1045.5 382.5L1062.5 382.5L1079.5 382.5L1096.5 382.5L1113.5 382.5L1130.5 382.5L1147.5 382.5L1164.5 382.5L1181.5 382.5L1198.5 382.5" stroke="rgba(243, 191, 153, 1)" stroke-width="2.83"></path><path d="M1194.25 382.5 a4.25 4.25 0 1 0 8.5 0 a4.25 4.25 0 1 0 -8.5 0zM327.25 365.5 a4.25 4.25 0 1 0 8.5 0 a4.25 4.25 0 1 0 -8.5 0zM361.25 365.5 a4.25 4.25 0 1 0 8.5 0 a4.25 4.25 0 1 0 -8.5 0zM1075.25 399.5 a4.25 4.25 0 1 0 8.5 0 a4.25 4.25 0 1 0 -8.5 0zM463.25 365.5 a4.25 4.25 0 1 0 8.5 0 a4.25 4.25 0 1 0 -8.5 0zM616.25 382.5 a4.25 4.25 0 1 0 8.5 0 a4.25 4.25 0 1 0 -8.5 0zM871.25 382.5 a4.25 4.25 0 1 0 8.5 0 a4.25 4.25 0 1 0 -8.5 0zM1228.25 416.5 a4.25 4.25 0 1 0 8.5 0 a4.25 4.25 0 1 0 -8.5 0zM905.25 382.5 a4.25 4.25 0 1 0 8.5 0 a4.25 4.25 0 1 0 -8.5 0zM259.25 348.5 a4.25 4.25 0 1 0 8.5 0 a4.25 4.25 0 1 0 -8.5 0zM684.25 365.5 a4.25 4.25 0 1 0 8.5 0 a4.25 4.25 0 1 0 -8.5 0zM701.25 399.5 a4.25 4.25 0 1 0 8.5 0 a4.25 4.25 0 1 0 -8.5 0zM769.25 399.5 a4.25 4.25 0 1 0 8.5 0 a4.25 4.25 0 1 0 -8.5 0zM412.25 365.5 a4.25 4.25 0 1 0 8.5 0 a4.25 4.25 0 1 0 -8.5 0zM1007.25 399.5 a4.25 4.25 0 1 0 8.5 0 a4.25 4.25 0 1 0 -8.5 0zM395.25 331.5 a4.25 4.25 0 1 0 8.5 0 a4.25 4.25 0 1 0 -8.5 0zM1228.25 433.5 a4.25 4.25 0 1 0 8.5 0 a4.25 4.25 0 1 0 -8.5 0zM497.25 365.5 a4.25 4.25 0 1 0 8.5 0 a4.25 4.25 0 1 0 -8.5 0zM565.25 365.5 a4.25 4.25 0 1 0 8.5 0 a4.25 4.25 0 1 0 -8.5 0z" fill="rgba(243, 191, 153, 1)"></path><path d="M1164.5 178.5L1181.5 161.5L1198.5 161.5L1215.5 161.5L1232.5 161.5M858.5 161.5L875.5 144.5L892.5 144.5L909.5 144.5L926.5 144.5L943.5 144.5L960.5 144.5L977.5 144.5L994.5 144.5L1011.5 144.5L1028.5 144.5L1045.5 144.5L1062.5 144.5L1079.5 144.5L1096.5 144.5M722.5 161.5L739.5 178.5L756.5 178.5L773.5 178.5L790.5 178.5L807.5 178.5L824.5 178.5L841.5 195.5L858.5 195.5L875.5 195.5L892.5 195.5L909.5 195.5L926.5 178.5L943.5 178.5L960.5 178.5L977.5 178.5L994.5 178.5L1011.5 178.5L1028.5 178.5L1045.5 178.5L1062.5 178.5L1079.5 178.5M399.5 178.5L416.5 161.5L433.5 161.5L450.5 161.5L467.5 161.5L484.5 161.5L501.5 161.5L518.5 161.5L535.5 161.5L552.5 161.5L569.5 161.5L586.5 161.5M314.5 178.5L331.5 161.5L348.5 161.5L365.5 161.5M807.5 161.5L824.5 144.5L841.5 144.5L858.5 144.5M1147.5 178.5L1164.5 161.5L1181.5 144.5L1198.5 144.5L1215.5 144.5L1232.5 144.5M671.5 178.5L688.5 195.5L705.5 195.5L722.5 195.5M1096.5 178.5L1113.5 161.5L1130.5 161.5L1147.5 161.5L1164.5 144.5L1181.5 127.5L1198.5 127.5L1215.5 127.5L1232.5 127.5M1079.5 161.5L1096.5 161.5M841.5 161.5L858.5 178.5M790.5 161.5L807.5 144.5M875.5 161.5L892.5 178.5M297.5 178.5L314.5 161.5M705.5 161.5L722.5 178.5M773.5 161.5L790.5 144.5M-8.5 212.5L8.5 212.5L25.5 212.5L42.5 212.5L59.5 212.5L76.5 195.5L93.5 178.5L110.5 178.5L127.5 178.5L144.5 178.5L161.5 178.5L178.5 178.5L195.5 178.5L212.5 178.5L229.5 178.5L246.5 178.5L263.5 178.5L280.5 178.5L297.5 178.5L314.5 178.5L331.5 178.5L348.5 178.5L365.5 178.5L382.5 178.5L399.5 178.5L416.5 178.5L433.5 178.5L450.5 178.5L467.5 178.5L484.5 178.5L501.5 178.5L518.5 178.5L535.5 178.5L552.5 178.5L569.5 178.5L586.5 178.5L603.5 178.5L620.5 178.5L637.5 178.5L654.5 178.5L671.5 178.5L688.5 178.5L705.5 161.5L722.5 161.5L739.5 161.5L756.5 161.5L773.5 161.5L790.5 161.5L807.5 161.5L824.5 161.5L841.5 161.5L858.5 161.5L875.5 161.5L892.5 161.5L909.5 161.5L926.5 161.5L943.5 161.5L960.5 161.5L977.5 161.5L994.5 161.5L1011.5 161.5L1028.5 161.5L1045.5 161.5L1062.5 161.5L1079.5 161.5L1096.5 178.5L1113.5 178.5L1130.5 178.5L1147.5 178.5L1164.5 178.5L1181.5 178.5" stroke="rgba(243, 191, 153, 1)" stroke-width="2.83"></path><path d="M1177.25 178.5 a4.25 4.25 0 1 0 8.5 0 a4.25 4.25 0 1 0 -8.5 0zM1228.25 161.5 a4.25 4.25 0 1 0 8.5 0 a4.25 4.25 0 1 0 -8.5 0zM1092.25 144.5 a4.25 4.25 0 1 0 8.5 0 a4.25 4.25 0 1 0 -8.5 0zM1075.25 178.5 a4.25 4.25 0 1 0 8.5 0 a4.25 4.25 0 1 0 -8.5 0zM582.25 161.5 a4.25 4.25 0 1 0 8.5 0 a4.25 4.25 0 1 0 -8.5 0zM361.25 161.5 a4.25 4.25 0 1 0 8.5 0 a4.25 4.25 0 1 0 -8.5 0zM854.25 144.5 a4.25 4.25 0 1 0 8.5 0 a4.25 4.25 0 1 0 -8.5 0zM1228.25 144.5 a4.25 4.25 0 1 0 8.5 0 a4.25 4.25 0 1 0 -8.5 0zM718.25 195.5 a4.25 4.25 0 1 0 8.5 0 a4.25 4.25 0 1 0 -8.5 0zM1228.25 127.5 a4.25 4.25 0 1 0 8.5 0 a4.25 4.25 0 1 0 -8.5 0zM1092.25 161.5 a4.25 4.25 0 1 0 8.5 0 a4.25 4.25 0 1 0 -8.5 0zM854.25 178.5 a4.25 4.25 0 1 0 8.5 0 a4.25 4.25 0 1 0 -8.5 0zM803.25 144.5 a4.25 4.25 0 1 0 8.5 0 a4.25 4.25 0 1 0 -8.5 0zM888.25 178.5 a4.25 4.25 0 1 0 8.5 0 a4.25 4.25 0 1 0 -8.5 0zM310.25 161.5 a4.25 4.25 0 1 0 8.5 0 a4.25 4.25 0 1 0 -8.5 0zM718.25 178.5 a4.25 4.25 0 1 0 8.5 0 a4.25 4.25 0 1 0 -8.5 0zM786.25 144.5 a4.25 4.25 0 1 0 8.5 0 a4.25 4.25 0 1 0 -8.5 0z" fill="rgba(243, 191, 153, 1)"></path><path d="M603.5 416.5L620.5 433.5L637.5 433.5L654.5 450.5L671.5 450.5L688.5 450.5L705.5 450.5L722.5 450.5L739.5 450.5L756.5 450.5M569.5 416.5L586.5 433.5L603.5 433.5M756.5 433.5L773.5 416.5L790.5 416.5L807.5 416.5L824.5 416.5L841.5 416.5L858.5 416.5L875.5 416.5L892.5 416.5L909.5 416.5L926.5 416.5L943.5 416.5L960.5 416.5L977.5 416.5L994.5 416.5L1011.5 416.5L1028.5 433.5L1045.5 433.5L1062.5 433.5L1079.5 433.5M790.5 433.5L807.5 450.5L824.5 450.5L841.5 450.5L858.5 450.5L875.5 450.5L892.5 450.5M501.5 399.5L518.5 416.5L535.5 416.5L552.5 433.5L569.5 433.5M433.5 399.5L450.5 416.5L467.5 416.5L484.5 416.5L501.5 416.5L518.5 433.5L535.5 433.5M535.5 399.5L552.5 399.5L569.5 399.5L586.5 399.5L603.5 399.5L620.5 399.5L637.5 399.5M739.5 433.5L756.5 416.5M688.5 433.5L705.5 416.5M297.5 382.5L314.5 382.5M654.5 433.5L671.5 416.5L688.5 416.5M773.5 433.5L790.5 450.5L807.5 467.5L824.5 467.5L841.5 467.5L858.5 467.5L875.5 467.5L892.5 467.5L909.5 467.5M722.5 433.5L739.5 416.5M-8.5 348.5L8.5 348.5L25.5 348.5L42.5 348.5L59.5 348.5L76.5 348.5L93.5 348.5L110.5 348.5L127.5 348.5L144.5 365.5L161.5 382.5L178.5 382.5L195.5 382.5L212.5 382.5L229.5 382.5L246.5 382.5L263.5 382.5L280.5 382.5L297.5 382.5L314.5 399.5L331.5 399.5L348.5 399.5L365.5 399.5L382.5 399.5L399.5 399.5L416.5 399.5L433.5 399.5L450.5 399.5L467.5 399.5L484.5 399.5L501.5 399.5L518.5 399.5L535.5 399.5L552.5 416.5L569.5 416.5L586.5 416.5L603.5 416.5L620.5 416.5L637.5 416.5L654.5 433.5L671.5 433.5L688.5 433.5L705.5 433.5L722.5 433.5L739.5 433.5L756.5 433.5L773.5 433.5L790.5 433.5L807.5 433.5L824.5 433.5L841.5 433.5L858.5 433.5L875.5 433.5" stroke="rgba(0, 255, 239, 1)" stroke-width="2.83"></path><path d="M871.25 433.5 a4.25 4.25 0 1 0 8.5 0 a4.25 4.25 0 1 0 -8.5 0zM752.25 450.5 a4.25 4.25 0 1 0 8.5 0 a4.25 4.25 0 1 0 -8.5 0zM599.25 433.5 a4.25 4.25 0 1 0 8.5 0 a4.25 4.25 0 1 0 -8.5 0zM1075.25 433.5 a4.25 4.25 0 1 0 8.5 0 a4.25 4.25 0 1 0 -8.5 0zM888.25 450.5 a4.25 4.25 0 1 0 8.5 0 a4.25 4.25 0 1 0 -8.5 0zM565.25 433.5 a4.25 4.25 0 1 0 8.5 0 a4.25 4.25 0 1 0 -8.5 0zM531.25 433.5 a4.25 4.25 0 1 0 8.5 0 a4.25 4.25 0 1 0 -8.5 0zM633.25 399.5 a4.25 4.25 0 1 0 8.5 0 a4.25 4.25 0 1 0 -8.5 0zM752.25 416.5 a4.25 4.25 0 1 0 8.5 0 a4.25 4.25 0 1 0 -8.5 0zM701.25 416.5 a4.25 4.25 0 1 0 8.5 0 a4.25 4.25 0 1 0 -8.5 0zM310.25 382.5 a4.25 4.25 0 1 0 8.5 0 a4.25 4.25 0 1 0 -8.5 0zM684.25 416.5 a4.25 4.25 0 1 0 8.5 0 a4.25 4.25 0 1 0 -8.5 0zM905.25 467.5 a4.25 4.25 0 1 0 8.5 0 a4.25 4.25 0 1 0 -8.5 0zM735.25 416.5 a4.25 4.25 0 1 0 8.5 0 a4.25 4.25 0 1 0 -8.5 0z" fill="rgba(0, 255, 239, 1)"></path><path d="M365.5 144.5L382.5 144.5L399.5 144.5L416.5 144.5L433.5 144.5M178.5 161.5L195.5 144.5M161.5 161.5L178.5 144.5M280.5 144.5L297.5 161.5M-8.5 195.5L8.5 195.5L25.5 195.5L42.5 195.5L59.5 195.5L76.5 178.5L93.5 161.5L110.5 161.5L127.5 161.5L144.5 161.5L161.5 161.5L178.5 161.5L195.5 161.5L212.5 161.5L229.5 161.5L246.5 161.5L263.5 161.5L280.5 144.5L297.5 144.5L314.5 144.5L331.5 144.5L348.5 144.5L365.5 144.5L382.5 161.5" stroke="rgba(0, 255, 239, 1)" stroke-width="2.83"></path><path d="M378.25 161.5 a4.25 4.25 0 1 0 8.5 0 a4.25 4.25 0 1 0 -8.5 0zM429.25 144.5 a4.25 4.25 0 1 0 8.5 0 a4.25 4.25 0 1 0 -8.5 0zM191.25 144.5 a4.25 4.25 0 1 0 8.5 0 a4.25 4.25 0 1 0 -8.5 0zM174.25 144.5 a4.25 4.25 0 1 0 8.5 0 a4.25 4.25 0 1 0 -8.5 0zM293.25 161.5 a4.25 4.25 0 1 0 8.5 0 a4.25 4.25 0 1 0 -8.5 0z" fill="rgba(0, 255, 239, 1)"></path><path d="M807.5 484.5L824.5 501.5M773.5 484.5L790.5 467.5M671.5 484.5L688.5 501.5L705.5 501.5L722.5 501.5L739.5 501.5L756.5 501.5L773.5 518.5L790.5 518.5L807.5 501.5M603.5 450.5L620.5 450.5L637.5 450.5M484.5 433.5L501.5 433.5M756.5 484.5L773.5 467.5M705.5 484.5L722.5 467.5L739.5 467.5L756.5 467.5M654.5 467.5L671.5 467.5L688.5 467.5L705.5 467.5M620.5 467.5L637.5 484.5L654.5 484.5L671.5 501.5L688.5 518.5M416.5 416.5L433.5 416.5M-8.5 365.5L8.5 365.5L25.5 365.5L42.5 365.5L59.5 365.5L76.5 365.5L93.5 365.5L110.5 365.5L127.5 365.5L144.5 382.5L161.5 399.5L178.5 399.5L195.5 399.5L212.5 399.5L229.5 399.5L246.5 399.5L263.5 399.5L280.5 399.5L297.5 399.5L314.5 416.5L331.5 416.5L348.5 416.5L365.5 416.5L382.5 416.5L399.5 416.5L416.5 416.5L433.5 433.5L450.5 433.5L467.5 433.5L484.5 433.5L501.5 450.5L518.5 450.5L535.5 450.5L552.5 450.5L569.5 450.5L586.5 450.5L603.5 450.5L620.5 467.5L637.5 467.5L654.5 467.5L671.5 484.5L688.5 484.5L705.5 484.5L722.5 484.5L739.5 484.5L756.5 484.5L773.5 484.5L790.5 484.5L807.5 484.5L824.5 484.5L841.5 484.5" stroke="rgba(243, 191, 153, 1)" stroke-width="2.83"></path><path d="M837.25 484.5 a4.25 4.25 0 1 0 8.5 0 a4.25 4.25 0 1 0 -8.5 0zM820.25 501.5 a4.25 4.25 0 1 0 8.5 0 a4.25 4.25 0 1 0 -8.5 0zM786.25 467.5 a4.25 4.25 0 1 0 8.5 0 a4.25 4.25 0 1 0 -8.5 0zM803.25 501.5 a4.25 4.25 0 1 0 8.5 0 a4.25 4.25 0 1 0 -8.5 0zM633.25 450.5 a4.25 4.25 0 1 0 8.5 0 a4.25 4.25 0 1 0 -8.5 0zM497.25 433.5 a4.25 4.25 0 1 0 8.5 0 a4.25 4.25 0 1 0 -8.5 0zM769.25 467.5 a4.25 4.25 0 1 0 8.5 0 a4.25 4.25 0 1 0 -8.5 0zM752.25 467.5 a4.25 4.25 0 1 0 8.5 0 a4.25 4.25 0 1 0 -8.5 0zM701.25 467.5 a4.25 4.25 0 1 0 8.5 0 a4.25 4.25 0 1 0 -8.5 0zM684.25 518.5 a4.25 4.25 0 1 0 8.5 0 a4.25 4.25 0 1 0 -8.5 0zM429.25 416.5 a4.25 4.25 0 1 0 8.5 0 a4.25 4.25 0 1 0 -8.5 0z" fill="rgba(243, 191, 153, 1)"></path><path d="M875.5 127.5L892.5 127.5L909.5 127.5L926.5 127.5L943.5 127.5M926.5 93.5L943.5 110.5L960.5 110.5L977.5 110.5L994.5 110.5L1011.5 110.5L1028.5 110.5L1045.5 110.5L1062.5 110.5L1079.5 110.5L1096.5 110.5L1113.5 127.5M127.5 144.5L144.5 127.5M501.5 127.5L518.5 127.5L535.5 127.5L552.5 127.5L569.5 127.5L586.5 127.5M1181.5 93.5L1198.5 93.5L1215.5 93.5L1232.5 93.5M484.5 127.5L501.5 144.5M450.5 127.5L467.5 144.5M246.5 144.5L263.5 127.5M943.5 93.5L960.5 76.5L977.5 76.5L994.5 59.5L1011.5 59.5L1028.5 59.5L1045.5 59.5L1062.5 59.5M1096.5 93.5L1113.5 76.5L1130.5 76.5L1147.5 76.5L1164.5 76.5M144.5 144.5L161.5 144.5M603.5 161.5L620.5 144.5L637.5 144.5L654.5 144.5L671.5 144.5L688.5 144.5M1164.5 93.5L1181.5 110.5M1113.5 93.5L1130.5 110.5L1147.5 110.5L1164.5 110.5M909.5 93.5L926.5 110.5M1062.5 93.5L1079.5 76.5L1096.5 76.5L1113.5 59.5L1130.5 59.5L1147.5 59.5M42.5 178.5L59.5 178.5M1028.5 93.5L1045.5 76.5L1062.5 76.5M-8.5 178.5L8.5 178.5L25.5 178.5L42.5 178.5L59.5 161.5L76.5 161.5L93.5 144.5L110.5 144.5L127.5 144.5L144.5 144.5L161.5 127.5L178.5 127.5L195.5 127.5L212.5 127.5L229.5 144.5L246.5 144.5L263.5 144.5L280.5 127.5L297.5 127.5L314.5 127.5L331.5 127.5L348.5 127.5L365.5 127.5L382.5 127.5L399.5 127.5L416.5 127.5L433.5 127.5L450.5 127.5L467.5 127.5L484.5 127.5L501.5 127.5L518.5 144.5L535.5 144.5L552.5 144.5L569.5 144.5L586.5 144.5L603.5 161.5L620.5 161.5L637.5 161.5L654.5 161.5L671.5 161.5L688.5 161.5L705.5 144.5L722.5 144.5L739.5 144.5L756.5 144.5L773.5 127.5L790.5 127.5L807.5 127.5L824.5 127.5L841.5 127.5L858.5 127.5L875.5 127.5L892.5 110.5L909.5 93.5L926.5 93.5L943.5 93.5L960.5 93.5L977.5 93.5L994.5 93.5L1011.5 93.5L1028.5 93.5L1045.5 93.5L1062.5 93.5L1079.5 93.5L1096.5 93.5L1113.5 93.5L1130.5 93.5L1147.5 93.5L1164.5 93.5L1181.5 93.5L1198.5 110.5" stroke="rgba(0, 255, 239, 1)" stroke-width="2.83"></path><path d="M1194.25 110.5 a4.25 4.25 0 1 0 8.5 0 a4.25 4.25 0 1 0 -8.5 0zM939.25 127.5 a4.25 4.25 0 1 0 8.5 0 a4.25 4.25 0 1 0 -8.5 0zM1109.25 127.5 a4.25 4.25 0 1 0 8.5 0 a4.25 4.25 0 1 0 -8.5 0zM140.25 127.5 a4.25 4.25 0 1 0 8.5 0 a4.25 4.25 0 1 0 -8.5 0zM582.25 127.5 a4.25 4.25 0 1 0 8.5 0 a4.25 4.25 0 1 0 -8.5 0zM1228.25 93.5 a4.25 4.25 0 1 0 8.5 0 a4.25 4.25 0 1 0 -8.5 0zM497.25 144.5 a4.25 4.25 0 1 0 8.5 0 a4.25 4.25 0 1 0 -8.5 0zM463.25 144.5 a4.25 4.25 0 1 0 8.5 0 a4.25 4.25 0 1 0 -8.5 0zM259.25 127.5 a4.25 4.25 0 1 0 8.5 0 a4.25 4.25 0 1 0 -8.5 0zM1058.25 59.5 a4.25 4.25 0 1 0 8.5 0 a4.25 4.25 0 1 0 -8.5 0zM1160.25 76.5 a4.25 4.25 0 1 0 8.5 0 a4.25 4.25 0 1 0 -8.5 0zM157.25 144.5 a4.25 4.25 0 1 0 8.5 0 a4.25 4.25 0 1 0 -8.5 0zM684.25 144.5 a4.25 4.25 0 1 0 8.5 0 a4.25 4.25 0 1 0 -8.5 0zM1177.25 110.5 a4.25 4.25 0 1 0 8.5 0 a4.25 4.25 0 1 0 -8.5 0zM1160.25 110.5 a4.25 4.25 0 1 0 8.5 0 a4.25 4.25 0 1 0 -8.5 0zM922.25 110.5 a4.25 4.25 0 1 0 8.5 0 a4.25 4.25 0 1 0 -8.5 0zM1143.25 59.5 a4.25 4.25 0 1 0 8.5 0 a4.25 4.25 0 1 0 -8.5 0zM55.25 178.5 a4.25 4.25 0 1 0 8.5 0 a4.25 4.25 0 1 0 -8.5 0zM1058.25 76.5 a4.25 4.25 0 1 0 8.5 0 a4.25 4.25 0 1 0 -8.5 0z" fill="rgba(0, 255, 239, 1)"></path><path d="M280.5 416.5L297.5 433.5L314.5 450.5L331.5 467.5M348.5 433.5L365.5 450.5L382.5 450.5L399.5 450.5L416.5 450.5L433.5 467.5M569.5 467.5L586.5 484.5L603.5 484.5L620.5 484.5M552.5 467.5L569.5 484.5L586.5 501.5L603.5 501.5L620.5 501.5L637.5 518.5L654.5 518.5L671.5 518.5M450.5 450.5L467.5 467.5L484.5 467.5M331.5 433.5L348.5 450.5L365.5 467.5M501.5 467.5L518.5 484.5L535.5 484.5M-8.5 382.5L8.5 382.5L25.5 382.5L42.5 382.5L59.5 382.5L76.5 382.5L93.5 382.5L110.5 382.5L127.5 382.5L144.5 399.5L161.5 416.5L178.5 416.5L195.5 416.5L212.5 416.5L229.5 416.5L246.5 416.5L263.5 416.5L280.5 416.5L297.5 416.5L314.5 433.5L331.5 433.5L348.5 433.5L365.5 433.5L382.5 433.5L399.5 433.5L416.5 433.5L433.5 450.5L450.5 450.5L467.5 450.5L484.5 450.5L501.5 467.5L518.5 467.5L535.5 467.5L552.5 467.5L569.5 467.5L586.5 467.5" stroke="rgba(243, 191, 153, 1)" stroke-width="2.83"></path><path d="M582.25 467.5 a4.25 4.25 0 1 0 8.5 0 a4.25 4.25 0 1 0 -8.5 0zM327.25 467.5 a4.25 4.25 0 1 0 8.5 0 a4.25 4.25 0 1 0 -8.5 0zM429.25 467.5 a4.25 4.25 0 1 0 8.5 0 a4.25 4.25 0 1 0 -8.5 0zM616.25 484.5 a4.25 4.25 0 1 0 8.5 0 a4.25 4.25 0 1 0 -8.5 0zM667.25 518.5 a4.25 4.25 0 1 0 8.5 0 a4.25 4.25 0 1 0 -8.5 0zM480.25 467.5 a4.25 4.25 0 1 0 8.5 0 a4.25 4.25 0 1 0 -8.5 0zM361.25 467.5 a4.25 4.25 0 1 0 8.5 0 a4.25 4.25 0 1 0 -8.5 0zM531.25 484.5 a4.25 4.25 0 1 0 8.5 0 a4.25 4.25 0 1 0 -8.5 0z" fill="rgba(243, 191, 153, 1)"></path><path d="M365.5 110.5L382.5 93.5L399.5 93.5L416.5 93.5L433.5 93.5L450.5 93.5L467.5 93.5L484.5 93.5L501.5 93.5L518.5 93.5L535.5 93.5M722.5 127.5L739.5 110.5L756.5 110.5L773.5 93.5L790.5 93.5L807.5 93.5M110.5 127.5L127.5 127.5M25.5 161.5L42.5 144.5M569.5 110.5L586.5 93.5L603.5 93.5L620.5 93.5L637.5 93.5L654.5 93.5L671.5 93.5L688.5 93.5L705.5 93.5L722.5 93.5L739.5 93.5L756.5 93.5M331.5 110.5L348.5 93.5L365.5 93.5M705.5 127.5L722.5 110.5M620.5 110.5L637.5 127.5M841.5 110.5L858.5 93.5L875.5 93.5L892.5 76.5L909.5 59.5L926.5 59.5L943.5 76.5M637.5 110.5L654.5 110.5L671.5 110.5L688.5 110.5L705.5 110.5M824.5 110.5L841.5 93.5L858.5 76.5L875.5 76.5L892.5 59.5L909.5 42.5L926.5 42.5L943.5 42.5L960.5 42.5L977.5 42.5L994.5 42.5L1011.5 42.5L1028.5 42.5L1045.5 42.5L1062.5 42.5L1079.5 42.5L1096.5 42.5L1113.5 42.5M-8.5 161.5L8.5 161.5L25.5 161.5L42.5 161.5L59.5 144.5L76.5 144.5L93.5 127.5L110.5 127.5L127.5 110.5L144.5 110.5L161.5 110.5L178.5 110.5L195.5 110.5L212.5 110.5L229.5 110.5L246.5 110.5L263.5 110.5L280.5 110.5L297.5 110.5L314.5 110.5L331.5 110.5L348.5 110.5L365.5 110.5L382.5 110.5L399.5 110.5L416.5 110.5L433.5 110.5L450.5 110.5L467.5 110.5L484.5 110.5L501.5 110.5L518.5 110.5L535.5 110.5L552.5 110.5L569.5 110.5L586.5 110.5L603.5 110.5L620.5 110.5L637.5 110.5L654.5 127.5L671.5 127.5L688.5 127.5L705.5 127.5L722.5 127.5L739.5 127.5L756.5 127.5L773.5 110.5L790.5 110.5L807.5 110.5L824.5 110.5L841.5 110.5L858.5 110.5L875.5 110.5L892.5 93.5L909.5 76.5L926.5 76.5" stroke="rgba(243, 191, 153, 1)" stroke-width="2.83"></path><path d="M922.25 76.5 a4.25 4.25 0 1 0 8.5 0 a4.25 4.25 0 1 0 -8.5 0zM531.25 93.5 a4.25 4.25 0 1 0 8.5 0 a4.25 4.25 0 1 0 -8.5 0zM803.25 93.5 a4.25 4.25 0 1 0 8.5 0 a4.25 4.25 0 1 0 -8.5 0zM123.25 127.5 a4.25 4.25 0 1 0 8.5 0 a4.25 4.25 0 1 0 -8.5 0zM38.25 144.5 a4.25 4.25 0 1 0 8.5 0 a4.25 4.25 0 1 0 -8.5 0zM752.25 93.5 a4.25 4.25 0 1 0 8.5 0 a4.25 4.25 0 1 0 -8.5 0zM361.25 93.5 a4.25 4.25 0 1 0 8.5 0 a4.25 4.25 0 1 0 -8.5 0zM718.25 110.5 a4.25 4.25 0 1 0 8.5 0 a4.25 4.25 0 1 0 -8.5 0zM633.25 127.5 a4.25 4.25 0 1 0 8.5 0 a4.25 4.25 0 1 0 -8.5 0zM939.25 76.5 a4.25 4.25 0 1 0 8.5 0 a4.25 4.25 0 1 0 -8.5 0zM701.25 110.5 a4.25 4.25 0 1 0 8.5 0 a4.25 4.25 0 1 0 -8.5 0zM1109.25 42.5 a4.25 4.25 0 1 0 8.5 0 a4.25 4.25 0 1 0 -8.5 0z" fill="rgba(243, 191, 153, 1)"></path><path d="M127.5 416.5L144.5 433.5L161.5 450.5L178.5 450.5L195.5 450.5M76.5 399.5L93.5 416.5M212.5 433.5L229.5 450.5L246.5 450.5L263.5 450.5L280.5 450.5L297.5 450.5M8.5 399.5L25.5 416.5L42.5 416.5L59.5 416.5M-8.5 399.5L8.5 399.5L25.5 399.5L42.5 399.5L59.5 399.5L76.5 399.5L93.5 399.5L110.5 399.5L127.5 416.5L144.5 416.5L161.5 433.5L178.5 433.5L195.5 433.5L212.5 433.5L229.5 433.5L246.5 433.5L263.5 433.5" stroke="rgba(0, 255, 239, 1)" stroke-width="2.83"></path><path d="M259.25 433.5 a4.25 4.25 0 1 0 8.5 0 a4.25 4.25 0 1 0 -8.5 0zM191.25 450.5 a4.25 4.25 0 1 0 8.5 0 a4.25 4.25 0 1 0 -8.5 0zM89.25 416.5 a4.25 4.25 0 1 0 8.5 0 a4.25 4.25 0 1 0 -8.5 0zM293.25 450.5 a4.25 4.25 0 1 0 8.5 0 a4.25 4.25 0 1 0 -8.5 0zM55.25 416.5 a4.25 4.25 0 1 0 8.5 0 a4.25 4.25 0 1 0 -8.5 0z" fill="rgba(0, 255, 239, 1)"></path><path d="M552.5 76.5L569.5 59.5L586.5 59.5M467.5 76.5L484.5 59.5L501.5 59.5L518.5 42.5L535.5 42.5L552.5 59.5M59.5 127.5L76.5 110.5L93.5 93.5L110.5 93.5L127.5 76.5L144.5 59.5L161.5 59.5L178.5 59.5L195.5 59.5M450.5 76.5L467.5 59.5L484.5 42.5M178.5 93.5L195.5 76.5L212.5 76.5L229.5 59.5L246.5 42.5M331.5 76.5L348.5 59.5L365.5 59.5L382.5 59.5L399.5 42.5L416.5 42.5L433.5 42.5M144.5 93.5L161.5 76.5L178.5 76.5M433.5 76.5L450.5 59.5L467.5 42.5M42.5 127.5L59.5 110.5L76.5 93.5L93.5 76.5L110.5 76.5L127.5 59.5L144.5 42.5L161.5 42.5L178.5 42.5L195.5 42.5L212.5 42.5L229.5 42.5M654.5 76.5L671.5 59.5L688.5 59.5L705.5 59.5L722.5 59.5L739.5 59.5L756.5 59.5L773.5 59.5L790.5 59.5L807.5 59.5L824.5 59.5L841.5 76.5M246.5 93.5L263.5 76.5L280.5 76.5L297.5 76.5M518.5 76.5L535.5 59.5M-8.5 144.5L8.5 144.5L25.5 127.5L42.5 127.5L59.5 127.5L76.5 127.5L93.5 110.5L110.5 110.5L127.5 93.5L144.5 93.5L161.5 93.5L178.5 93.5L195.5 93.5L212.5 93.5L229.5 93.5L246.5 93.5L263.5 93.5L280.5 93.5L297.5 93.5L314.5 93.5L331.5 76.5L348.5 76.5L365.5 76.5L382.5 76.5L399.5 76.5L416.5 76.5L433.5 76.5L450.5 76.5L467.5 76.5L484.5 76.5L501.5 76.5L518.5 76.5L535.5 76.5L552.5 76.5L569.5 76.5L586.5 76.5L603.5 76.5L620.5 76.5L637.5 76.5L654.5 76.5L671.5 76.5L688.5 76.5L705.5 76.5L722.5 76.5L739.5 76.5L756.5 76.5L773.5 76.5L790.5 76.5" stroke="rgba(243, 191, 153, 1)" stroke-width="2.83"></path><path d="M786.25 76.5 a4.25 4.25 0 1 0 8.5 0 a4.25 4.25 0 1 0 -8.5 0zM582.25 59.5 a4.25 4.25 0 1 0 8.5 0 a4.25 4.25 0 1 0 -8.5 0zM548.25 59.5 a4.25 4.25 0 1 0 8.5 0 a4.25 4.25 0 1 0 -8.5 0zM191.25 59.5 a4.25 4.25 0 1 0 8.5 0 a4.25 4.25 0 1 0 -8.5 0zM480.25 42.5 a4.25 4.25 0 1 0 8.5 0 a4.25 4.25 0 1 0 -8.5 0zM242.25 42.5 a4.25 4.25 0 1 0 8.5 0 a4.25 4.25 0 1 0 -8.5 0zM429.25 42.5 a4.25 4.25 0 1 0 8.5 0 a4.25 4.25 0 1 0 -8.5 0zM174.25 76.5 a4.25 4.25 0 1 0 8.5 0 a4.25 4.25 0 1 0 -8.5 0zM463.25 42.5 a4.25 4.25 0 1 0 8.5 0 a4.25 4.25 0 1 0 -8.5 0zM225.25 42.5 a4.25 4.25 0 1 0 8.5 0 a4.25 4.25 0 1 0 -8.5 0zM837.25 76.5 a4.25 4.25 0 1 0 8.5 0 a4.25 4.25 0 1 0 -8.5 0zM293.25 76.5 a4.25 4.25 0 1 0 8.5 0 a4.25 4.25 0 1 0 -8.5 0zM531.25 59.5 a4.25 4.25 0 1 0 8.5 0 a4.25 4.25 0 1 0 -8.5 0z" fill="rgba(243, 191, 153, 1)"></path></g></g><defs><mask id="SvgjsMask1986"><rect width="1440" height="560" fill="#ffffff"></rect></mask><linearGradient x1="50%" y1="100%" x2="50%" y2="0%" gradientUnits="userSpaceOnUse" id="SvgjsLinearGradient1987"><stop stop-color="#0e2a47" offset="0"></stop><stop stop-color="rgba(0, 111, 255, 0.72)" offset="1"></stop></linearGradient><mask id="SvgjsMask1988"><rect width="1440" height="560" fill="white"></rect><path d="M686.37 331.5 a2.13 2.13 0 1 0 4.26 0 a2.13 2.13 0 1 0 -4.26 0zM635.37 297.5 a2.13 2.13 0 1 0 4.26 0 a2.13 2.13 0 1 0 -4.26 0zM142.37 280.5 a2.13 2.13 0 1 0 4.26 0 a2.13 2.13 0 1 0 -4.26 0zM669.37 314.5 a2.13 2.13 0 1 0 4.26 0 a2.13 2.13 0 1 0 -4.26 0zM91.37 297.5 a2.13 2.13 0 1 0 4.26 0 a2.13 2.13 0 1 0 -4.26 0zM567.37 297.5 a2.13 2.13 0 1 0 4.26 0 a2.13 2.13 0 1 0 -4.26 0zM686.37 263.5 a2.13 2.13 0 1 0 4.26 0 a2.13 2.13 0 1 0 -4.26 0z" fill="black"></path><path d="M618.37 263.5 a2.13 2.13 0 1 0 4.26 0 a2.13 2.13 0 1 0 -4.26 0zM635.37 246.5 a2.13 2.13 0 1 0 4.26 0 a2.13 2.13 0 1 0 -4.26 0zM567.37 246.5 a2.13 2.13 0 1 0 4.26 0 a2.13 2.13 0 1 0 -4.26 0zM295.37 246.5 a2.13 2.13 0 1 0 4.26 0 a2.13 2.13 0 1 0 -4.26 0zM261.37 246.5 a2.13 2.13 0 1 0 4.26 0 a2.13 2.13 0 1 0 -4.26 0zM431.37 263.5 a2.13 2.13 0 1 0 4.26 0 a2.13 2.13 0 1 0 -4.26 0zM414.37 263.5 a2.13 2.13 0 1 0 4.26 0 a2.13 2.13 0 1 0 -4.26 0zM363.37 263.5 a2.13 2.13 0 1 0 4.26 0 a2.13 2.13 0 1 0 -4.26 0zM210.37 263.5 a2.13 2.13 0 1 0 4.26 0 a2.13 2.13 0 1 0 -4.26 0zM397.37 263.5 a2.13 2.13 0 1 0 4.26 0 a2.13 2.13 0 1 0 -4.26 0z" fill="black"></path><path d="M1145.37 365.5 a2.13 2.13 0 1 0 4.26 0 a2.13 2.13 0 1 0 -4.26 0zM1230.37 348.5 a2.13 2.13 0 1 0 4.26 0 a2.13 2.13 0 1 0 -4.26 0zM57.37 297.5 a2.13 2.13 0 1 0 4.26 0 a2.13 2.13 0 1 0 -4.26 0zM1094.37 314.5 a2.13 2.13 0 1 0 4.26 0 a2.13 2.13 0 1 0 -4.26 0zM193.37 331.5 a2.13 2.13 0 1 0 4.26 0 a2.13 2.13 0 1 0 -4.26 0zM448.37 331.5 a2.13 2.13 0 1 0 4.26 0 a2.13 2.13 0 1 0 -4.26 0zM1162.37 348.5 a2.13 2.13 0 1 0 4.26 0 a2.13 2.13 0 1 0 -4.26 0zM1060.37 348.5 a2.13 2.13 0 1 0 4.26 0 a2.13 2.13 0 1 0 -4.26 0zM329.37 331.5 a2.13 2.13 0 1 0 4.26 0 a2.13 2.13 0 1 0 -4.26 0zM703.37 365.5 a2.13 2.13 0 1 0 4.26 0 a2.13 2.13 0 1 0 -4.26 0zM414.37 331.5 a2.13 2.13 0 1 0 4.26 0 a2.13 2.13 0 1 0 -4.26 0zM550.37 331.5 a2.13 2.13 0 1 0 4.26 0 a2.13 2.13 0 1 0 -4.26 0zM1128.37 348.5 a2.13 2.13 0 1 0 4.26 0 a2.13 2.13 0 1 0 -4.26 0zM499.37 331.5 a2.13 2.13 0 1 0 4.26 0 a2.13 2.13 0 1 0 -4.26 0zM771.37 331.5 a2.13 2.13 0 1 0 4.26 0 a2.13 2.13 0 1 0 -4.26 0zM295.37 348.5 a2.13 2.13 0 1 0 4.26 0 a2.13 2.13 0 1 0 -4.26 0zM40.37 314.5 a2.13 2.13 0 1 0 4.26 0 a2.13 2.13 0 1 0 -4.26 0zM941.37 348.5 a2.13 2.13 0 1 0 4.26 0 a2.13 2.13 0 1 0 -4.26 0z" fill="black"></path><path d="M1162.37 212.5 a2.13 2.13 0 1 0 4.26 0 a2.13 2.13 0 1 0 -4.26 0zM329.37 246.5 a2.13 2.13 0 1 0 4.26 0 a2.13 2.13 0 1 0 -4.26 0zM1230.37 212.5 a2.13 2.13 0 1 0 4.26 0 a2.13 2.13 0 1 0 -4.26 0zM431.37 229.5 a2.13 2.13 0 1 0 4.26 0 a2.13 2.13 0 1 0 -4.26 0zM516.37 246.5 a2.13 2.13 0 1 0 4.26 0 a2.13 2.13 0 1 0 -4.26 0zM329.37 212.5 a2.13 2.13 0 1 0 4.26 0 a2.13 2.13 0 1 0 -4.26 0zM227.37 212.5 a2.13 2.13 0 1 0 4.26 0 a2.13 2.13 0 1 0 -4.26 0zM754.37 246.5 a2.13 2.13 0 1 0 4.26 0 a2.13 2.13 0 1 0 -4.26 0zM176.37 229.5 a2.13 2.13 0 1 0 4.26 0 a2.13 2.13 0 1 0 -4.26 0zM227.37 246.5 a2.13 2.13 0 1 0 4.26 0 a2.13 2.13 0 1 0 -4.26 0zM210.37 212.5 a2.13 2.13 0 1 0 4.26 0 a2.13 2.13 0 1 0 -4.26 0zM975.37 195.5 a2.13 2.13 0 1 0 4.26 0 a2.13 2.13 0 1 0 -4.26 0zM1128.37 195.5 a2.13 2.13 0 1 0 4.26 0 a2.13 2.13 0 1 0 -4.26 0zM822.37 246.5 a2.13 2.13 0 1 0 4.26 0 a2.13 2.13 0 1 0 -4.26 0zM1179.37 246.5 a2.13 2.13 0 1 0 4.26 0 a2.13 2.13 0 1 0 -4.26 0zM754.37 212.5 a2.13 2.13 0 1 0 4.26 0 a2.13 2.13 0 1 0 -4.26 0zM856.37 212.5 a2.13 2.13 0 1 0 4.26 0 a2.13 2.13 0 1 0 -4.26 0zM1179.37 314.5 a2.13 2.13 0 1 0 4.26 0 a2.13 2.13 0 1 0 -4.26 0z" fill="black"></path><path d="M6.37 314.5 a2.13 2.13 0 1 0 4.26 0 a2.13 2.13 0 1 0 -4.26 0z" fill="black"></path><path d="M652.37 195.5 a2.13 2.13 0 1 0 4.26 0 a2.13 2.13 0 1 0 -4.26 0zM516.37 212.5 a2.13 2.13 0 1 0 4.26 0 a2.13 2.13 0 1 0 -4.26 0zM159.37 212.5 a2.13 2.13 0 1 0 4.26 0 a2.13 2.13 0 1 0 -4.26 0zM465.37 212.5 a2.13 2.13 0 1 0 4.26 0 a2.13 2.13 0 1 0 -4.26 0zM414.37 212.5 a2.13 2.13 0 1 0 4.26 0 a2.13 2.13 0 1 0 -4.26 0zM295.37 212.5 a2.13 2.13 0 1 0 4.26 0 a2.13 2.13 0 1 0 -4.26 0zM278.37 212.5 a2.13 2.13 0 1 0 4.26 0 a2.13 2.13 0 1 0 -4.26 0zM142.37 212.5 a2.13 2.13 0 1 0 4.26 0 a2.13 2.13 0 1 0 -4.26 0zM380.37 212.5 a2.13 2.13 0 1 0 4.26 0 a2.13 2.13 0 1 0 -4.26 0zM74.37 229.5 a2.13 2.13 0 1 0 4.26 0 a2.13 2.13 0 1 0 -4.26 0zM261.37 212.5 a2.13 2.13 0 1 0 4.26 0 a2.13 2.13 0 1 0 -4.26 0z" fill="black"></path><path d="M1196.37 382.5 a2.13 2.13 0 1 0 4.26 0 a2.13 2.13 0 1 0 -4.26 0zM329.37 365.5 a2.13 2.13 0 1 0 4.26 0 a2.13 2.13 0 1 0 -4.26 0zM363.37 365.5 a2.13 2.13 0 1 0 4.26 0 a2.13 2.13 0 1 0 -4.26 0zM1077.37 399.5 a2.13 2.13 0 1 0 4.26 0 a2.13 2.13 0 1 0 -4.26 0zM465.37 365.5 a2.13 2.13 0 1 0 4.26 0 a2.13 2.13 0 1 0 -4.26 0zM618.37 382.5 a2.13 2.13 0 1 0 4.26 0 a2.13 2.13 0 1 0 -4.26 0zM873.37 382.5 a2.13 2.13 0 1 0 4.26 0 a2.13 2.13 0 1 0 -4.26 0zM1230.37 416.5 a2.13 2.13 0 1 0 4.26 0 a2.13 2.13 0 1 0 -4.26 0zM907.37 382.5 a2.13 2.13 0 1 0 4.26 0 a2.13 2.13 0 1 0 -4.26 0zM261.37 348.5 a2.13 2.13 0 1 0 4.26 0 a2.13 2.13 0 1 0 -4.26 0zM686.37 365.5 a2.13 2.13 0 1 0 4.26 0 a2.13 2.13 0 1 0 -4.26 0zM703.37 399.5 a2.13 2.13 0 1 0 4.26 0 a2.13 2.13 0 1 0 -4.26 0zM771.37 399.5 a2.13 2.13 0 1 0 4.26 0 a2.13 2.13 0 1 0 -4.26 0zM414.37 365.5 a2.13 2.13 0 1 0 4.26 0 a2.13 2.13 0 1 0 -4.26 0zM1009.37 399.5 a2.13 2.13 0 1 0 4.26 0 a2.13 2.13 0 1 0 -4.26 0zM397.37 331.5 a2.13 2.13 0 1 0 4.26 0 a2.13 2.13 0 1 0 -4.26 0zM1230.37 433.5 a2.13 2.13 0 1 0 4.26 0 a2.13 2.13 0 1 0 -4.26 0zM499.37 365.5 a2.13 2.13 0 1 0 4.26 0 a2.13 2.13 0 1 0 -4.26 0zM567.37 365.5 a2.13 2.13 0 1 0 4.26 0 a2.13 2.13 0 1 0 -4.26 0z" fill="black"></path><path d="M1179.37 178.5 a2.13 2.13 0 1 0 4.26 0 a2.13 2.13 0 1 0 -4.26 0zM1230.37 161.5 a2.13 2.13 0 1 0 4.26 0 a2.13 2.13 0 1 0 -4.26 0zM1094.37 144.5 a2.13 2.13 0 1 0 4.26 0 a2.13 2.13 0 1 0 -4.26 0zM1077.37 178.5 a2.13 2.13 0 1 0 4.26 0 a2.13 2.13 0 1 0 -4.26 0zM584.37 161.5 a2.13 2.13 0 1 0 4.26 0 a2.13 2.13 0 1 0 -4.26 0zM363.37 161.5 a2.13 2.13 0 1 0 4.26 0 a2.13 2.13 0 1 0 -4.26 0zM856.37 144.5 a2.13 2.13 0 1 0 4.26 0 a2.13 2.13 0 1 0 -4.26 0zM1230.37 144.5 a2.13 2.13 0 1 0 4.26 0 a2.13 2.13 0 1 0 -4.26 0zM720.37 195.5 a2.13 2.13 0 1 0 4.26 0 a2.13 2.13 0 1 0 -4.26 0zM1230.37 127.5 a2.13 2.13 0 1 0 4.26 0 a2.13 2.13 0 1 0 -4.26 0zM1094.37 161.5 a2.13 2.13 0 1 0 4.26 0 a2.13 2.13 0 1 0 -4.26 0zM856.37 178.5 a2.13 2.13 0 1 0 4.26 0 a2.13 2.13 0 1 0 -4.26 0zM805.37 144.5 a2.13 2.13 0 1 0 4.26 0 a2.13 2.13 0 1 0 -4.26 0zM890.37 178.5 a2.13 2.13 0 1 0 4.26 0 a2.13 2.13 0 1 0 -4.26 0zM312.37 161.5 a2.13 2.13 0 1 0 4.26 0 a2.13 2.13 0 1 0 -4.26 0zM720.37 178.5 a2.13 2.13 0 1 0 4.26 0 a2.13 2.13 0 1 0 -4.26 0zM788.37 144.5 a2.13 2.13 0 1 0 4.26 0 a2.13 2.13 0 1 0 -4.26 0z" fill="black"></path><path d="M873.37 433.5 a2.13 2.13 0 1 0 4.26 0 a2.13 2.13 0 1 0 -4.26 0zM754.37 450.5 a2.13 2.13 0 1 0 4.26 0 a2.13 2.13 0 1 0 -4.26 0zM601.37 433.5 a2.13 2.13 0 1 0 4.26 0 a2.13 2.13 0 1 0 -4.26 0zM1077.37 433.5 a2.13 2.13 0 1 0 4.26 0 a2.13 2.13 0 1 0 -4.26 0zM890.37 450.5 a2.13 2.13 0 1 0 4.26 0 a2.13 2.13 0 1 0 -4.26 0zM567.37 433.5 a2.13 2.13 0 1 0 4.26 0 a2.13 2.13 0 1 0 -4.26 0zM533.37 433.5 a2.13 2.13 0 1 0 4.26 0 a2.13 2.13 0 1 0 -4.26 0zM635.37 399.5 a2.13 2.13 0 1 0 4.26 0 a2.13 2.13 0 1 0 -4.26 0zM754.37 416.5 a2.13 2.13 0 1 0 4.26 0 a2.13 2.13 0 1 0 -4.26 0zM703.37 416.5 a2.13 2.13 0 1 0 4.26 0 a2.13 2.13 0 1 0 -4.26 0zM312.37 382.5 a2.13 2.13 0 1 0 4.26 0 a2.13 2.13 0 1 0 -4.26 0zM686.37 416.5 a2.13 2.13 0 1 0 4.26 0 a2.13 2.13 0 1 0 -4.26 0zM907.37 467.5 a2.13 2.13 0 1 0 4.26 0 a2.13 2.13 0 1 0 -4.26 0zM737.37 416.5 a2.13 2.13 0 1 0 4.26 0 a2.13 2.13 0 1 0 -4.26 0z" fill="black"></path><path d="M380.37 161.5 a2.13 2.13 0 1 0 4.26 0 a2.13 2.13 0 1 0 -4.26 0zM431.37 144.5 a2.13 2.13 0 1 0 4.26 0 a2.13 2.13 0 1 0 -4.26 0zM193.37 144.5 a2.13 2.13 0 1 0 4.26 0 a2.13 2.13 0 1 0 -4.26 0zM176.37 144.5 a2.13 2.13 0 1 0 4.26 0 a2.13 2.13 0 1 0 -4.26 0zM295.37 161.5 a2.13 2.13 0 1 0 4.26 0 a2.13 2.13 0 1 0 -4.26 0z" fill="black"></path><path d="M839.37 484.5 a2.13 2.13 0 1 0 4.26 0 a2.13 2.13 0 1 0 -4.26 0zM822.37 501.5 a2.13 2.13 0 1 0 4.26 0 a2.13 2.13 0 1 0 -4.26 0zM788.37 467.5 a2.13 2.13 0 1 0 4.26 0 a2.13 2.13 0 1 0 -4.26 0zM805.37 501.5 a2.13 2.13 0 1 0 4.26 0 a2.13 2.13 0 1 0 -4.26 0zM635.37 450.5 a2.13 2.13 0 1 0 4.26 0 a2.13 2.13 0 1 0 -4.26 0zM499.37 433.5 a2.13 2.13 0 1 0 4.26 0 a2.13 2.13 0 1 0 -4.26 0zM771.37 467.5 a2.13 2.13 0 1 0 4.26 0 a2.13 2.13 0 1 0 -4.26 0zM754.37 467.5 a2.13 2.13 0 1 0 4.26 0 a2.13 2.13 0 1 0 -4.26 0zM703.37 467.5 a2.13 2.13 0 1 0 4.26 0 a2.13 2.13 0 1 0 -4.26 0zM686.37 518.5 a2.13 2.13 0 1 0 4.26 0 a2.13 2.13 0 1 0 -4.26 0zM431.37 416.5 a2.13 2.13 0 1 0 4.26 0 a2.13 2.13 0 1 0 -4.26 0z" fill="black"></path><path d="M1196.37 110.5 a2.13 2.13 0 1 0 4.26 0 a2.13 2.13 0 1 0 -4.26 0zM941.37 127.5 a2.13 2.13 0 1 0 4.26 0 a2.13 2.13 0 1 0 -4.26 0zM1111.37 127.5 a2.13 2.13 0 1 0 4.26 0 a2.13 2.13 0 1 0 -4.26 0zM142.37 127.5 a2.13 2.13 0 1 0 4.26 0 a2.13 2.13 0 1 0 -4.26 0zM584.37 127.5 a2.13 2.13 0 1 0 4.26 0 a2.13 2.13 0 1 0 -4.26 0zM1230.37 93.5 a2.13 2.13 0 1 0 4.26 0 a2.13 2.13 0 1 0 -4.26 0zM499.37 144.5 a2.13 2.13 0 1 0 4.26 0 a2.13 2.13 0 1 0 -4.26 0zM465.37 144.5 a2.13 2.13 0 1 0 4.26 0 a2.13 2.13 0 1 0 -4.26 0zM261.37 127.5 a2.13 2.13 0 1 0 4.26 0 a2.13 2.13 0 1 0 -4.26 0zM1060.37 59.5 a2.13 2.13 0 1 0 4.26 0 a2.13 2.13 0 1 0 -4.26 0zM1162.37 76.5 a2.13 2.13 0 1 0 4.26 0 a2.13 2.13 0 1 0 -4.26 0zM159.37 144.5 a2.13 2.13 0 1 0 4.26 0 a2.13 2.13 0 1 0 -4.26 0zM686.37 144.5 a2.13 2.13 0 1 0 4.26 0 a2.13 2.13 0 1 0 -4.26 0zM1179.37 110.5 a2.13 2.13 0 1 0 4.26 0 a2.13 2.13 0 1 0 -4.26 0zM1162.37 110.5 a2.13 2.13 0 1 0 4.26 0 a2.13 2.13 0 1 0 -4.26 0zM924.37 110.5 a2.13 2.13 0 1 0 4.26 0 a2.13 2.13 0 1 0 -4.26 0zM1145.37 59.5 a2.13 2.13 0 1 0 4.26 0 a2.13 2.13 0 1 0 -4.26 0zM57.37 178.5 a2.13 2.13 0 1 0 4.26 0 a2.13 2.13 0 1 0 -4.26 0zM1060.37 76.5 a2.13 2.13 0 1 0 4.26 0 a2.13 2.13 0 1 0 -4.26 0z" fill="black"></path><path d="M584.37 467.5 a2.13 2.13 0 1 0 4.26 0 a2.13 2.13 0 1 0 -4.26 0zM329.37 467.5 a2.13 2.13 0 1 0 4.26 0 a2.13 2.13 0 1 0 -4.26 0zM431.37 467.5 a2.13 2.13 0 1 0 4.26 0 a2.13 2.13 0 1 0 -4.26 0zM618.37 484.5 a2.13 2.13 0 1 0 4.26 0 a2.13 2.13 0 1 0 -4.26 0zM669.37 518.5 a2.13 2.13 0 1 0 4.26 0 a2.13 2.13 0 1 0 -4.26 0zM482.37 467.5 a2.13 2.13 0 1 0 4.26 0 a2.13 2.13 0 1 0 -4.26 0zM363.37 467.5 a2.13 2.13 0 1 0 4.26 0 a2.13 2.13 0 1 0 -4.26 0zM533.37 484.5 a2.13 2.13 0 1 0 4.26 0 a2.13 2.13 0 1 0 -4.26 0z" fill="black"></path><path d="M924.37 76.5 a2.13 2.13 0 1 0 4.26 0 a2.13 2.13 0 1 0 -4.26 0zM533.37 93.5 a2.13 2.13 0 1 0 4.26 0 a2.13 2.13 0 1 0 -4.26 0zM805.37 93.5 a2.13 2.13 0 1 0 4.26 0 a2.13 2.13 0 1 0 -4.26 0zM125.37 127.5 a2.13 2.13 0 1 0 4.26 0 a2.13 2.13 0 1 0 -4.26 0zM40.37 144.5 a2.13 2.13 0 1 0 4.26 0 a2.13 2.13 0 1 0 -4.26 0zM754.37 93.5 a2.13 2.13 0 1 0 4.26 0 a2.13 2.13 0 1 0 -4.26 0zM363.37 93.5 a2.13 2.13 0 1 0 4.26 0 a2.13 2.13 0 1 0 -4.26 0zM720.37 110.5 a2.13 2.13 0 1 0 4.26 0 a2.13 2.13 0 1 0 -4.26 0zM635.37 127.5 a2.13 2.13 0 1 0 4.26 0 a2.13 2.13 0 1 0 -4.26 0zM941.37 76.5 a2.13 2.13 0 1 0 4.26 0 a2.13 2.13 0 1 0 -4.26 0zM703.37 110.5 a2.13 2.13 0 1 0 4.26 0 a2.13 2.13 0 1 0 -4.26 0zM1111.37 42.5 a2.13 2.13 0 1 0 4.26 0 a2.13 2.13 0 1 0 -4.26 0z" fill="black"></path><path d="M261.37 433.5 a2.13 2.13 0 1 0 4.26 0 a2.13 2.13 0 1 0 -4.26 0zM193.37 450.5 a2.13 2.13 0 1 0 4.26 0 a2.13 2.13 0 1 0 -4.26 0zM91.37 416.5 a2.13 2.13 0 1 0 4.26 0 a2.13 2.13 0 1 0 -4.26 0zM295.37 450.5 a2.13 2.13 0 1 0 4.26 0 a2.13 2.13 0 1 0 -4.26 0zM57.37 416.5 a2.13 2.13 0 1 0 4.26 0 a2.13 2.13 0 1 0 -4.26 0z" fill="black"></path><path d="M788.37 76.5 a2.13 2.13 0 1 0 4.26 0 a2.13 2.13 0 1 0 -4.26 0zM584.37 59.5 a2.13 2.13 0 1 0 4.26 0 a2.13 2.13 0 1 0 -4.26 0zM550.37 59.5 a2.13 2.13 0 1 0 4.26 0 a2.13 2.13 0 1 0 -4.26 0zM193.37 59.5 a2.13 2.13 0 1 0 4.26 0 a2.13 2.13 0 1 0 -4.26 0zM482.37 42.5 a2.13 2.13 0 1 0 4.26 0 a2.13 2.13 0 1 0 -4.26 0zM244.37 42.5 a2.13 2.13 0 1 0 4.26 0 a2.13 2.13 0 1 0 -4.26 0zM431.37 42.5 a2.13 2.13 0 1 0 4.26 0 a2.13 2.13 0 1 0 -4.26 0zM176.37 76.5 a2.13 2.13 0 1 0 4.26 0 a2.13 2.13 0 1 0 -4.26 0zM465.37 42.5 a2.13 2.13 0 1 0 4.26 0 a2.13 2.13 0 1 0 -4.26 0zM227.37 42.5 a2.13 2.13 0 1 0 4.26 0 a2.13 2.13 0 1 0 -4.26 0zM839.37 76.5 a2.13 2.13 0 1 0 4.26 0 a2.13 2.13 0 1 0 -4.26 0zM295.37 76.5 a2.13 2.13 0 1 0 4.26 0 a2.13 2.13 0 1 0 -4.26 0zM533.37 59.5 a2.13 2.13 0 1 0 4.26 0 a2.13 2.13 0 1 0 -4.26 0z" fill="black"></path></mask></defs></svg>