<svg xmlns="http://www.w3.org/2000/svg" version="1.1" xmlns:xlink="http://www.w3.org/1999/xlink" xmlns:svgjs="http://svgjs.com/svgjs" width="1440" height="560" preserveAspectRatio="none" viewBox="0 0 1440 560"><g mask="url(&quot;#SvgjsMask2891&quot;)" fill="none"><rect width="1440" height="560" x="0" y="0" fill="url(#SvgjsLinearGradient2892)"></rect><path d="M-83.14 364.87L-83.14 364.87" stroke="#132e65" stroke-width="1.5"></path><path d="M-83.14 364.87L64.4 403.9" stroke="#132e65" stroke-width="1.5"></path><path d="M-83.14 364.87L-63.01 520.93" stroke="#132e65" stroke-width="1.5"></path><path d="M-83.14 364.87L96.96 519.99" stroke="#132e65" stroke-width="1.5"></path><path d="M-83.14 364.87L192.73 506.44" stroke="#132e65" stroke-width="1.5"></path><path d="M-63.01 520.93L-63.01 520.93" stroke="#132e65" stroke-width="1.5"></path><path d="M-63.01 520.93L96.96 519.99" stroke="#132e65" stroke-width="1.5"></path><path d="M-63.01 520.93L-49.19 685.88" stroke="#132e65" stroke-width="1.5"></path><path d="M-49.19 685.88L-49.19 685.88" stroke="#132e65" stroke-width="1.5"></path><path d="M-49.19 685.88L110.8 701.22" stroke="#132e65" stroke-width="1.5"></path><path d="M-49.19 685.88L96.96 519.99" stroke="#132e65" stroke-width="1.5"></path><path d="M-49.19 685.88L192.73 506.44" stroke="#132e65" stroke-width="1.5"></path><path d="M-49.19 685.88L64.4 403.9" stroke="#132e65" stroke-width="1.5"></path><path d="M-49.19 685.88L253.93 657.86" stroke="#132e65" stroke-width="1.5"></path><path d="M64.4 403.9L64.4 403.9" stroke="#132e65" stroke-width="1.5"></path><path d="M64.4 403.9L96.96 519.99" stroke="#132e65" stroke-width="1.5"></path><path d="M64.4 403.9L192.73 506.44" stroke="#132e65" stroke-width="1.5"></path><path d="M64.4 403.9L-63.01 520.93" stroke="#132e65" stroke-width="1.5"></path><path d="M96.96 519.99L96.96 519.99" stroke="#132e65" stroke-width="1.5"></path><path d="M96.96 519.99L192.73 506.44" stroke="#132e65" stroke-width="1.5"></path><path d="M110.8 701.22L110.8 701.22" stroke="#132e65" stroke-width="1.5"></path><path d="M110.8 701.22L253.93 657.86" stroke="#132e65" stroke-width="1.5"></path><path d="M110.8 701.22L96.96 519.99" stroke="#132e65" stroke-width="1.5"></path><path d="M261.51 339.58L261.51 339.58" stroke="#132e65" stroke-width="1.5"></path><path d="M261.51 339.58L350.69 412.23" stroke="#132e65" stroke-width="1.5"></path><path d="M261.51 339.58L192.73 506.44" stroke="#132e65" stroke-width="1.5"></path><path d="M192.73 506.44L192.73 506.44" stroke="#132e65" stroke-width="1.5"></path><path d="M192.73 506.44L345.74 539.32" stroke="#132e65" stroke-width="1.5"></path><path d="M192.73 506.44L253.93 657.86" stroke="#132e65" stroke-width="1.5"></path><path d="M192.73 506.44L350.69 412.23" stroke="#132e65" stroke-width="1.5"></path><path d="M253.93 657.86L253.93 657.86" stroke="#132e65" stroke-width="1.5"></path><path d="M253.93 657.86L366.22 687.47" stroke="#132e65" stroke-width="1.5"></path><path d="M350.69 412.23L350.69 412.23" stroke="#132e65" stroke-width="1.5"></path><path d="M350.69 412.23L345.74 539.32" stroke="#132e65" stroke-width="1.5"></path><path d="M345.74 539.32L345.74 539.32" stroke="#132e65" stroke-width="1.5"></path><path d="M345.74 539.32L366.22 687.47" stroke="#132e65" stroke-width="1.5"></path><path d="M345.74 539.32L253.93 657.86" stroke="#132e65" stroke-width="1.5"></path><path d="M345.74 539.32L499.49 550.45" stroke="#132e65" stroke-width="1.5"></path><path d="M366.22 687.47L366.22 687.47" stroke="#132e65" stroke-width="1.5"></path><path d="M546.42 375.51L546.42 375.51" stroke="#132e65" stroke-width="1.5"></path><path d="M546.42 375.51L702.32 357.22" stroke="#132e65" stroke-width="1.5"></path><path d="M546.42 375.51L499.49 550.45" stroke="#132e65" stroke-width="1.5"></path><path d="M546.42 375.51L350.69 412.23" stroke="#132e65" stroke-width="1.5"></path><path d="M546.42 375.51L693.6 517.63" stroke="#132e65" stroke-width="1.5"></path><path d="M499.49 550.45L499.49 550.45" stroke="#132e65" stroke-width="1.5"></path><path d="M499.49 550.45L542.05 704.67" stroke="#132e65" stroke-width="1.5"></path><path d="M542.05 704.67L542.05 704.67" stroke="#132e65" stroke-width="1.5"></path><path d="M542.05 704.67L658.19 687.2" stroke="#132e65" stroke-width="1.5"></path><path d="M542.05 704.67L366.22 687.47" stroke="#132e65" stroke-width="1.5"></path><path d="M686.18 208.86L686.18 208.86" stroke="#132e65" stroke-width="1.5"></path><path d="M686.18 208.86L803.86 247.57" stroke="#132e65" stroke-width="1.5"></path><path d="M686.18 208.86L702.32 357.22" stroke="#132e65" stroke-width="1.5"></path><path d="M686.18 208.86L835.67 108.73" stroke="#132e65" stroke-width="1.5"></path><path d="M686.18 208.86L853.92 343.07" stroke="#132e65" stroke-width="1.5"></path><path d="M686.18 208.86L546.42 375.51" stroke="#132e65" stroke-width="1.5"></path><path d="M686.18 208.86L942.96 75.44" stroke="#132e65" stroke-width="1.5"></path><path d="M702.32 357.22L702.32 357.22" stroke="#132e65" stroke-width="1.5"></path><path d="M702.32 357.22L803.86 247.57" stroke="#132e65" stroke-width="1.5"></path><path d="M702.32 357.22L853.92 343.07" stroke="#132e65" stroke-width="1.5"></path><path d="M693.6 517.63L693.6 517.63" stroke="#132e65" stroke-width="1.5"></path><path d="M693.6 517.63L834.73 514.66" stroke="#132e65" stroke-width="1.5"></path><path d="M693.6 517.63L702.32 357.22" stroke="#132e65" stroke-width="1.5"></path><path d="M693.6 517.63L658.19 687.2" stroke="#132e65" stroke-width="1.5"></path><path d="M658.19 687.2L658.19 687.2" stroke="#132e65" stroke-width="1.5"></path><path d="M658.19 687.2L844.64 691.39" stroke="#132e65" stroke-width="1.5"></path><path d="M835.67 108.73L835.67 108.73" stroke="#132e65" stroke-width="1.5"></path><path d="M835.67 108.73L942.96 75.44" stroke="#132e65" stroke-width="1.5"></path><path d="M835.67 108.73L803.86 247.57" stroke="#132e65" stroke-width="1.5"></path><path d="M803.86 247.57L803.86 247.57" stroke="#132e65" stroke-width="1.5"></path><path d="M803.86 247.57L853.92 343.07" stroke="#132e65" stroke-width="1.5"></path><path d="M853.92 343.07L853.92 343.07" stroke="#132e65" stroke-width="1.5"></path><path d="M853.92 343.07L938.43 365.24" stroke="#132e65" stroke-width="1.5"></path><path d="M853.92 343.07L996.34 253.91" stroke="#132e65" stroke-width="1.5"></path><path d="M853.92 343.07L834.73 514.66" stroke="#132e65" stroke-width="1.5"></path><path d="M834.73 514.66L834.73 514.66" stroke="#132e65" stroke-width="1.5"></path><path d="M834.73 514.66L948.63 524.67" stroke="#132e65" stroke-width="1.5"></path><path d="M834.73 514.66L844.64 691.39" stroke="#132e65" stroke-width="1.5"></path><path d="M844.64 691.39L844.64 691.39" stroke="#132e65" stroke-width="1.5"></path><path d="M844.64 691.39L992.56 688.24" stroke="#132e65" stroke-width="1.5"></path><path d="M941.54 -61.63L941.54 -61.63" stroke="#132e65" stroke-width="1.5"></path><path d="M941.54 -61.63L942.96 75.44" stroke="#132e65" stroke-width="1.5"></path><path d="M941.54 -61.63L1140.27 -48.9" stroke="#132e65" stroke-width="1.5"></path><path d="M941.54 -61.63L835.67 108.73" stroke="#132e65" stroke-width="1.5"></path><path d="M941.54 -61.63L1124.02 45.73" stroke="#132e65" stroke-width="1.5"></path><path d="M941.54 -61.63L996.34 253.91" stroke="#132e65" stroke-width="1.5"></path><path d="M942.96 75.44L942.96 75.44" stroke="#132e65" stroke-width="1.5"></path><path d="M942.96 75.44L1124.02 45.73" stroke="#132e65" stroke-width="1.5"></path><path d="M942.96 75.44L996.34 253.91" stroke="#132e65" stroke-width="1.5"></path><path d="M996.34 253.91L996.34 253.91" stroke="#132e65" stroke-width="1.5"></path><path d="M996.34 253.91L1100.14 250.66" stroke="#132e65" stroke-width="1.5"></path><path d="M996.34 253.91L938.43 365.24" stroke="#132e65" stroke-width="1.5"></path><path d="M938.43 365.24L938.43 365.24" stroke="#132e65" stroke-width="1.5"></path><path d="M938.43 365.24L948.63 524.67" stroke="#132e65" stroke-width="1.5"></path><path d="M938.43 365.24L803.86 247.57" stroke="#132e65" stroke-width="1.5"></path><path d="M938.43 365.24L834.73 514.66" stroke="#132e65" stroke-width="1.5"></path><path d="M948.63 524.67L948.63 524.67" stroke="#132e65" stroke-width="1.5"></path><path d="M948.63 524.67L992.56 688.24" stroke="#132e65" stroke-width="1.5"></path><path d="M948.63 524.67L1123.79 560.52" stroke="#132e65" stroke-width="1.5"></path><path d="M948.63 524.67L844.64 691.39" stroke="#132e65" stroke-width="1.5"></path><path d="M992.56 688.24L992.56 688.24" stroke="#132e65" stroke-width="1.5"></path><path d="M992.56 688.24L1116.78 644.38" stroke="#132e65" stroke-width="1.5"></path><path d="M992.56 688.24L1123.79 560.52" stroke="#132e65" stroke-width="1.5"></path><path d="M992.56 688.24L834.73 514.66" stroke="#132e65" stroke-width="1.5"></path><path d="M1140.27 -48.9L1140.27 -48.9" stroke="#132e65" stroke-width="1.5"></path><path d="M1140.27 -48.9L1124.02 45.73" stroke="#132e65" stroke-width="1.5"></path><path d="M1140.27 -48.9L1297.04 -46.96" stroke="#132e65" stroke-width="1.5"></path><path d="M1140.27 -48.9L1280.03 73.28" stroke="#132e65" stroke-width="1.5"></path><path d="M1140.27 -48.9L942.96 75.44" stroke="#132e65" stroke-width="1.5"></path><path d="M1124.02 45.73L1124.02 45.73" stroke="#132e65" stroke-width="1.5"></path><path d="M1124.02 45.73L1280.03 73.28" stroke="#132e65" stroke-width="1.5"></path><path d="M1124.02 45.73L1297.04 -46.96" stroke="#132e65" stroke-width="1.5"></path><path d="M1124.02 45.73L1100.14 250.66" stroke="#132e65" stroke-width="1.5"></path><path d="M1100.14 250.66L1100.14 250.66" stroke="#132e65" stroke-width="1.5"></path><path d="M1125.36 381.72L1125.36 381.72" stroke="#132e65" stroke-width="1.5"></path><path d="M1125.36 381.72L1100.14 250.66" stroke="#132e65" stroke-width="1.5"></path><path d="M1125.36 381.72L1281.01 400.97" stroke="#132e65" stroke-width="1.5"></path><path d="M1123.79 560.52L1123.79 560.52" stroke="#132e65" stroke-width="1.5"></path><path d="M1123.79 560.52L1116.78 644.38" stroke="#132e65" stroke-width="1.5"></path><path d="M1123.79 560.52L1293.3 534.95" stroke="#132e65" stroke-width="1.5"></path><path d="M1123.79 560.52L1255.6 674.46" stroke="#132e65" stroke-width="1.5"></path><path d="M1123.79 560.52L1125.36 381.72" stroke="#132e65" stroke-width="1.5"></path><path d="M1116.78 644.38L1116.78 644.38" stroke="#132e65" stroke-width="1.5"></path><path d="M1116.78 644.38L1255.6 674.46" stroke="#132e65" stroke-width="1.5"></path><path d="M1116.78 644.38L948.63 524.67" stroke="#132e65" stroke-width="1.5"></path><path d="M1116.78 644.38L1293.3 534.95" stroke="#132e65" stroke-width="1.5"></path><path d="M1116.78 644.38L1125.36 381.72" stroke="#132e65" stroke-width="1.5"></path><path d="M1297.04 -46.96L1297.04 -46.96" stroke="#132e65" stroke-width="1.5"></path><path d="M1297.04 -46.96L1280.03 73.28" stroke="#132e65" stroke-width="1.5"></path><path d="M1297.04 -46.96L1448.24 -68.16" stroke="#132e65" stroke-width="1.5"></path><path d="M1297.04 -46.96L1412.41 76.82" stroke="#132e65" stroke-width="1.5"></path><path d="M1280.03 73.28L1280.03 73.28" stroke="#132e65" stroke-width="1.5"></path><path d="M1280.03 73.28L1412.41 76.82" stroke="#132e65" stroke-width="1.5"></path><path d="M1280.03 73.28L1297.9 212.32" stroke="#132e65" stroke-width="1.5"></path><path d="M1280.03 73.28L1448.24 -68.16" stroke="#132e65" stroke-width="1.5"></path><path d="M1297.9 212.32L1297.9 212.32" stroke="#132e65" stroke-width="1.5"></path><path d="M1297.9 212.32L1451.89 254.5" stroke="#132e65" stroke-width="1.5"></path><path d="M1297.9 212.32L1412.41 76.82" stroke="#132e65" stroke-width="1.5"></path><path d="M1297.9 212.32L1281.01 400.97" stroke="#132e65" stroke-width="1.5"></path><path d="M1297.9 212.32L1100.14 250.66" stroke="#132e65" stroke-width="1.5"></path><path d="M1281.01 400.97L1281.01 400.97" stroke="#132e65" stroke-width="1.5"></path><path d="M1281.01 400.97L1293.3 534.95" stroke="#132e65" stroke-width="1.5"></path><path d="M1281.01 400.97L1445.07 362.46" stroke="#132e65" stroke-width="1.5"></path><path d="M1281.01 400.97L1410.2 555.45" stroke="#132e65" stroke-width="1.5"></path><path d="M1293.3 534.95L1293.3 534.95" stroke="#132e65" stroke-width="1.5"></path><path d="M1293.3 534.95L1410.2 555.45" stroke="#132e65" stroke-width="1.5"></path><path d="M1293.3 534.95L1255.6 674.46" stroke="#132e65" stroke-width="1.5"></path><path d="M1255.6 674.46L1255.6 674.46" stroke="#132e65" stroke-width="1.5"></path><path d="M1255.6 674.46L1410.2 555.45" stroke="#132e65" stroke-width="1.5"></path><path d="M1255.6 674.46L992.56 688.24" stroke="#132e65" stroke-width="1.5"></path><path d="M1448.24 -68.16L1448.24 -68.16" stroke="#132e65" stroke-width="1.5"></path><path d="M1448.24 -68.16L1412.41 76.82" stroke="#132e65" stroke-width="1.5"></path><path d="M1448.24 -68.16L1602.29 -67.15" stroke="#132e65" stroke-width="1.5"></path><path d="M1448.24 -68.16L1567.73 101.84" stroke="#132e65" stroke-width="1.5"></path><path d="M1412.41 76.82L1412.41 76.82" stroke="#132e65" stroke-width="1.5"></path><path d="M1412.41 76.82L1567.73 101.84" stroke="#132e65" stroke-width="1.5"></path><path d="M1451.89 254.5L1451.89 254.5" stroke="#132e65" stroke-width="1.5"></path><path d="M1451.89 254.5L1445.07 362.46" stroke="#132e65" stroke-width="1.5"></path><path d="M1445.07 362.46L1445.07 362.46" stroke="#132e65" stroke-width="1.5"></path><path d="M1445.07 362.46L1591.43 376.83" stroke="#132e65" stroke-width="1.5"></path><path d="M1410.2 555.45L1410.2 555.45" stroke="#132e65" stroke-width="1.5"></path><path d="M1410.2 555.45L1566.28 551.31" stroke="#132e65" stroke-width="1.5"></path><path d="M1410.2 555.45L1445.07 362.46" stroke="#132e65" stroke-width="1.5"></path><path d="M1410.2 555.45L1607.79 648.8" stroke="#132e65" stroke-width="1.5"></path><path d="M1602.29 -67.15L1602.29 -67.15" stroke="#132e65" stroke-width="1.5"></path><path d="M1602.29 -67.15L1567.73 101.84" stroke="#132e65" stroke-width="1.5"></path><path d="M1602.29 -67.15L1412.41 76.82" stroke="#132e65" stroke-width="1.5"></path><path d="M1602.29 -67.15L1599.49 197.84" stroke="#132e65" stroke-width="1.5"></path><path d="M1567.73 101.84L1567.73 101.84" stroke="#132e65" stroke-width="1.5"></path><path d="M1567.73 101.84L1599.49 197.84" stroke="#132e65" stroke-width="1.5"></path><path d="M1599.49 197.84L1599.49 197.84" stroke="#132e65" stroke-width="1.5"></path><path d="M1599.49 197.84L1451.89 254.5" stroke="#132e65" stroke-width="1.5"></path><path d="M1599.49 197.84L1591.43 376.83" stroke="#132e65" stroke-width="1.5"></path><path d="M1599.49 197.84L1412.41 76.82" stroke="#132e65" stroke-width="1.5"></path><path d="M1599.49 197.84L1445.07 362.46" stroke="#132e65" stroke-width="1.5"></path><path d="M1591.43 376.83L1591.43 376.83" stroke="#132e65" stroke-width="1.5"></path><path d="M1591.43 376.83L1566.28 551.31" stroke="#132e65" stroke-width="1.5"></path><path d="M1591.43 376.83L1451.89 254.5" stroke="#132e65" stroke-width="1.5"></path><path d="M1591.43 376.83L1410.2 555.45" stroke="#132e65" stroke-width="1.5"></path><path d="M1566.28 551.31L1566.28 551.31" stroke="#132e65" stroke-width="1.5"></path><path d="M1566.28 551.31L1607.79 648.8" stroke="#132e65" stroke-width="1.5"></path><path d="M1607.79 648.8L1607.79 648.8" stroke="#132e65" stroke-width="1.5"></path><path d="M1607.79 648.8L1591.43 376.83" stroke="#132e65" stroke-width="1.5"></path><circle r="5" cx="-83.14" cy="364.87" fill="#132e65"></circle><circle r="5" cx="-63.01" cy="520.93" fill="#132e65"></circle><circle r="5" cx="-49.19" cy="685.88" fill="#132e65"></circle><circle r="5" cx="64.4" cy="403.9" fill="#132e65"></circle><circle r="5" cx="96.96" cy="519.99" fill="#132e65"></circle><circle r="5" cx="110.8" cy="701.22" fill="#132e65"></circle><circle r="5" cx="261.51" cy="339.58" fill="#132e65"></circle><circle r="5" cx="192.73" cy="506.44" fill="#132e65"></circle><circle r="5" cx="253.93" cy="657.86" fill="#132e65"></circle><circle r="5" cx="350.69" cy="412.23" fill="#132e65"></circle><circle r="5" cx="345.74" cy="539.32" fill="#132e65"></circle><circle r="5" cx="366.22" cy="687.47" fill="#132e65"></circle><circle r="5" cx="546.42" cy="375.51" fill="#132e65"></circle><circle r="5" cx="499.49" cy="550.45" fill="#132e65"></circle><circle r="5" cx="542.05" cy="704.67" fill="#132e65"></circle><circle r="5" cx="686.18" cy="208.86" fill="#132e65"></circle><circle r="5" cx="702.32" cy="357.22" fill="#132e65"></circle><circle r="5" cx="693.6" cy="517.63" fill="#132e65"></circle><circle r="5" cx="658.19" cy="687.2" fill="#132e65"></circle><circle r="5" cx="835.67" cy="108.73" fill="#132e65"></circle><circle r="5" cx="803.86" cy="247.57" fill="#132e65"></circle><circle r="5" cx="853.92" cy="343.07" fill="#132e65"></circle><circle r="5" cx="834.73" cy="514.66" fill="#132e65"></circle><circle r="5" cx="844.64" cy="691.39" fill="#132e65"></circle><circle r="5" cx="941.54" cy="-61.63" fill="#132e65"></circle><circle r="5" cx="942.96" cy="75.44" fill="#132e65"></circle><circle r="5" cx="996.34" cy="253.91" fill="#132e65"></circle><circle r="5" cx="938.43" cy="365.24" fill="#132e65"></circle><circle r="5" cx="948.63" cy="524.67" fill="#132e65"></circle><circle r="5" cx="992.56" cy="688.24" fill="#132e65"></circle><circle r="5" cx="1140.27" cy="-48.9" fill="#132e65"></circle><circle r="5" cx="1124.02" cy="45.73" fill="#132e65"></circle><circle r="5" cx="1100.14" cy="250.66" fill="#132e65"></circle><circle r="5" cx="1125.36" cy="381.72" fill="#132e65"></circle><circle r="5" cx="1123.79" cy="560.52" fill="#132e65"></circle><circle r="5" cx="1116.78" cy="644.38" fill="#132e65"></circle><circle r="5" cx="1297.04" cy="-46.96" fill="#132e65"></circle><circle r="5" cx="1280.03" cy="73.28" fill="#132e65"></circle><circle r="5" cx="1297.9" cy="212.32" fill="#132e65"></circle><circle r="5" cx="1281.01" cy="400.97" fill="#132e65"></circle><circle r="5" cx="1293.3" cy="534.95" fill="#132e65"></circle><circle r="5" cx="1255.6" cy="674.46" fill="#132e65"></circle><circle r="5" cx="1448.24" cy="-68.16" fill="#132e65"></circle><circle r="5" cx="1412.41" cy="76.82" fill="#132e65"></circle><circle r="5" cx="1451.89" cy="254.5" fill="#132e65"></circle><circle r="5" cx="1445.07" cy="362.46" fill="#132e65"></circle><circle r="5" cx="1410.2" cy="555.45" fill="#132e65"></circle><circle r="5" cx="1602.29" cy="-67.15" fill="#132e65"></circle><circle r="5" cx="1567.73" cy="101.84" fill="#132e65"></circle><circle r="5" cx="1599.49" cy="197.84" fill="#132e65"></circle><circle r="5" cx="1591.43" cy="376.83" fill="#132e65"></circle><circle r="5" cx="1566.28" cy="551.31" fill="#132e65"></circle><circle r="5" cx="1607.79" cy="648.8" fill="#132e65"></circle><path d="M358.46 490.68L358.46 490.68" stroke="hsl(228.5, 77.2%, 51.5%)" stroke-width="1.5"></path><path d="M358.46 490.68L235.36 536.7" stroke="hsl(228.5, 77.2%, 51.5%)" stroke-width="1.5"></path><path d="M358.46 490.68L554.94 545.37" stroke="hsl(228.5, 77.2%, 51.5%)" stroke-width="1.5"></path><path d="M358.46 490.68L541.94 651.79" stroke="hsl(228.5, 77.2%, 51.5%)" stroke-width="1.5"></path><path d="M939.42 503.04L939.42 503.04" stroke="hsl(228.5, 77.2%, 51.5%)" stroke-width="1.5"></path><path d="M939.42 503.04L813.35 544.22" stroke="hsl(228.5, 77.2%, 51.5%)" stroke-width="1.5"></path><path d="M939.42 503.04L828.21 398" stroke="hsl(228.5, 77.2%, 51.5%)" stroke-width="1.5"></path><path d="M939.42 503.04L969.06 350.93" stroke="hsl(228.5, 77.2%, 51.5%)" stroke-width="1.5"></path><path d="M1140.05 342.38L1140.05 342.38" stroke="hsl(228.5, 77.2%, 51.5%)" stroke-width="1.5"></path><path d="M1140.05 342.38L1104.18 209.47" stroke="hsl(228.5, 77.2%, 51.5%)" stroke-width="1.5"></path><path d="M1140.05 342.38L1275.24 241.37" stroke="hsl(228.5, 77.2%, 51.5%)" stroke-width="1.5"></path><path d="M1140.05 342.38L969.06 350.93" stroke="hsl(228.5, 77.2%, 51.5%)" stroke-width="1.5"></path><path d="M1285.16 639.79L1285.16 639.79" stroke="hsl(228.5, 77.2%, 51.5%)" stroke-width="1.5"></path><path d="M1285.16 639.79L1305.87 513.21" stroke="hsl(228.5, 77.2%, 51.5%)" stroke-width="1.5"></path><path d="M1285.16 639.79L1439.74 672.8" stroke="hsl(228.5, 77.2%, 51.5%)" stroke-width="1.5"></path><path d="M1285.16 639.79L1102.8 680.05" stroke="hsl(228.5, 77.2%, 51.5%)" stroke-width="1.5"></path><path d="M1285.16 639.79L1448.11 532.52" stroke="hsl(228.5, 77.2%, 51.5%)" stroke-width="1.5"></path><path d="M1285.16 639.79L1110.95 521.09" stroke="hsl(228.5, 77.2%, 51.5%)" stroke-width="1.5"></path><path d="M1285.16 639.79L1538.81 685.08" stroke="hsl(228.5, 77.2%, 51.5%)" stroke-width="1.5"></path><path d="M1393.26 45.07L1393.26 45.07" stroke="hsl(228.5, 77.2%, 51.5%)" stroke-width="1.5"></path><path d="M1393.26 45.07L1293.44 73.68" stroke="hsl(228.5, 77.2%, 51.5%)" stroke-width="1.5"></path><path d="M1393.26 45.07L1456.99 -72.78" stroke="hsl(228.5, 77.2%, 51.5%)" stroke-width="1.5"></path><path d="M1393.26 45.07L1281.88 -45.2" stroke="hsl(228.5, 77.2%, 51.5%)" stroke-width="1.5"></path><path d="M1439.74 672.8L1439.74 672.8" stroke="hsl(228.5, 77.2%, 51.5%)" stroke-width="1.5"></path><path d="M1439.74 672.8L1538.81 685.08" stroke="hsl(228.5, 77.2%, 51.5%)" stroke-width="1.5"></path><path d="M1439.74 672.8L1448.11 532.52" stroke="hsl(228.5, 77.2%, 51.5%)" stroke-width="1.5"></path><path d="M1439.74 672.8L1305.87 513.21" stroke="hsl(228.5, 77.2%, 51.5%)" stroke-width="1.5"></path><path d="M1439.74 672.8L1609.77 535.65" stroke="hsl(228.5, 77.2%, 51.5%)" stroke-width="1.5"></path><path d="M-96.28 642.71L-96.28 642.71" stroke="hsl(228.5, 77.2%, 51.5%)" stroke-width="1.5"></path><path d="M-96.28 642.71L56.31 683.58" stroke="hsl(228.5, 77.2%, 51.5%)" stroke-width="1.5"></path><path d="M-96.28 642.71L106.69 500.92" stroke="hsl(228.5, 77.2%, 51.5%)" stroke-width="1.5"></path><path d="M-96.28 642.71L235.36 536.7" stroke="hsl(228.5, 77.2%, 51.5%)" stroke-width="1.5"></path><path d="M-96.28 642.71L358.46 490.68" stroke="hsl(228.5, 77.2%, 51.5%)" stroke-width="1.5"></path><path d="M106.69 500.92L106.69 500.92" stroke="hsl(228.5, 77.2%, 51.5%)" stroke-width="1.5"></path><path d="M106.69 500.92L235.36 536.7" stroke="hsl(228.5, 77.2%, 51.5%)" stroke-width="1.5"></path><path d="M56.31 683.58L56.31 683.58" stroke="hsl(228.5, 77.2%, 51.5%)" stroke-width="1.5"></path><path d="M56.31 683.58L106.69 500.92" stroke="hsl(228.5, 77.2%, 51.5%)" stroke-width="1.5"></path><path d="M56.31 683.58L235.36 536.7" stroke="hsl(228.5, 77.2%, 51.5%)" stroke-width="1.5"></path><path d="M56.31 683.58L358.46 490.68" stroke="hsl(228.5, 77.2%, 51.5%)" stroke-width="1.5"></path><path d="M56.31 683.58L541.94 651.79" stroke="hsl(228.5, 77.2%, 51.5%)" stroke-width="1.5"></path><path d="M235.36 536.7L235.36 536.7" stroke="hsl(228.5, 77.2%, 51.5%)" stroke-width="1.5"></path><path d="M235.36 536.7L554.94 545.37" stroke="hsl(228.5, 77.2%, 51.5%)" stroke-width="1.5"></path><path d="M235.36 536.7L541.94 651.79" stroke="hsl(228.5, 77.2%, 51.5%)" stroke-width="1.5"></path><path d="M554.94 545.37L554.94 545.37" stroke="hsl(228.5, 77.2%, 51.5%)" stroke-width="1.5"></path><path d="M554.94 545.37L541.94 651.79" stroke="hsl(228.5, 77.2%, 51.5%)" stroke-width="1.5"></path><path d="M554.94 545.37L690.8 559.75" stroke="hsl(228.5, 77.2%, 51.5%)" stroke-width="1.5"></path><path d="M554.94 545.37L660.17 644.75" stroke="hsl(228.5, 77.2%, 51.5%)" stroke-width="1.5"></path><path d="M554.94 545.37L677.14 370.42" stroke="hsl(228.5, 77.2%, 51.5%)" stroke-width="1.5"></path><path d="M541.94 651.79L541.94 651.79" stroke="hsl(228.5, 77.2%, 51.5%)" stroke-width="1.5"></path><path d="M541.94 651.79L660.17 644.75" stroke="hsl(228.5, 77.2%, 51.5%)" stroke-width="1.5"></path><path d="M541.94 651.79L690.8 559.75" stroke="hsl(228.5, 77.2%, 51.5%)" stroke-width="1.5"></path><path d="M677.14 370.42L677.14 370.42" stroke="hsl(228.5, 77.2%, 51.5%)" stroke-width="1.5"></path><path d="M677.14 370.42L828.21 398" stroke="hsl(228.5, 77.2%, 51.5%)" stroke-width="1.5"></path><path d="M677.14 370.42L690.8 559.75" stroke="hsl(228.5, 77.2%, 51.5%)" stroke-width="1.5"></path><path d="M690.8 559.75L690.8 559.75" stroke="hsl(228.5, 77.2%, 51.5%)" stroke-width="1.5"></path><path d="M690.8 559.75L660.17 644.75" stroke="hsl(228.5, 77.2%, 51.5%)" stroke-width="1.5"></path><path d="M690.8 559.75L813.35 544.22" stroke="hsl(228.5, 77.2%, 51.5%)" stroke-width="1.5"></path><path d="M690.8 559.75L800.25 673.78" stroke="hsl(228.5, 77.2%, 51.5%)" stroke-width="1.5"></path><path d="M660.17 644.75L660.17 644.75" stroke="hsl(228.5, 77.2%, 51.5%)" stroke-width="1.5"></path><path d="M660.17 644.75L800.25 673.78" stroke="hsl(228.5, 77.2%, 51.5%)" stroke-width="1.5"></path><path d="M660.17 644.75L813.35 544.22" stroke="hsl(228.5, 77.2%, 51.5%)" stroke-width="1.5"></path><path d="M660.17 644.75L677.14 370.42" stroke="hsl(228.5, 77.2%, 51.5%)" stroke-width="1.5"></path><path d="M828.21 398L828.21 398" stroke="hsl(228.5, 77.2%, 51.5%)" stroke-width="1.5"></path><path d="M828.21 398L813.35 544.22" stroke="hsl(228.5, 77.2%, 51.5%)" stroke-width="1.5"></path><path d="M828.21 398L969.06 350.93" stroke="hsl(228.5, 77.2%, 51.5%)" stroke-width="1.5"></path><path d="M828.21 398L690.8 559.75" stroke="hsl(228.5, 77.2%, 51.5%)" stroke-width="1.5"></path><path d="M813.35 544.22L813.35 544.22" stroke="hsl(228.5, 77.2%, 51.5%)" stroke-width="1.5"></path><path d="M813.35 544.22L800.25 673.78" stroke="hsl(228.5, 77.2%, 51.5%)" stroke-width="1.5"></path><path d="M800.25 673.78L800.25 673.78" stroke="hsl(228.5, 77.2%, 51.5%)" stroke-width="1.5"></path><path d="M969.06 350.93L969.06 350.93" stroke="hsl(228.5, 77.2%, 51.5%)" stroke-width="1.5"></path><path d="M987.88 706.04L987.88 706.04" stroke="hsl(228.5, 77.2%, 51.5%)" stroke-width="1.5"></path><path d="M987.88 706.04L1102.8 680.05" stroke="hsl(228.5, 77.2%, 51.5%)" stroke-width="1.5"></path><path d="M987.88 706.04L800.25 673.78" stroke="hsl(228.5, 77.2%, 51.5%)" stroke-width="1.5"></path><path d="M987.88 706.04L939.42 503.04" stroke="hsl(228.5, 77.2%, 51.5%)" stroke-width="1.5"></path><path d="M1104.18 209.47L1104.18 209.47" stroke="hsl(228.5, 77.2%, 51.5%)" stroke-width="1.5"></path><path d="M1104.18 209.47L1275.24 241.37" stroke="hsl(228.5, 77.2%, 51.5%)" stroke-width="1.5"></path><path d="M1104.18 209.47L969.06 350.93" stroke="hsl(228.5, 77.2%, 51.5%)" stroke-width="1.5"></path><path d="M1104.18 209.47L1293.44 73.68" stroke="hsl(228.5, 77.2%, 51.5%)" stroke-width="1.5"></path><path d="M1110.95 521.09L1110.95 521.09" stroke="hsl(228.5, 77.2%, 51.5%)" stroke-width="1.5"></path><path d="M1110.95 521.09L1102.8 680.05" stroke="hsl(228.5, 77.2%, 51.5%)" stroke-width="1.5"></path><path d="M1110.95 521.09L939.42 503.04" stroke="hsl(228.5, 77.2%, 51.5%)" stroke-width="1.5"></path><path d="M1110.95 521.09L1140.05 342.38" stroke="hsl(228.5, 77.2%, 51.5%)" stroke-width="1.5"></path><path d="M1110.95 521.09L1305.87 513.21" stroke="hsl(228.5, 77.2%, 51.5%)" stroke-width="1.5"></path><path d="M1102.8 680.05L1102.8 680.05" stroke="hsl(228.5, 77.2%, 51.5%)" stroke-width="1.5"></path><path d="M1281.88 -45.2L1281.88 -45.2" stroke="hsl(228.5, 77.2%, 51.5%)" stroke-width="1.5"></path><path d="M1281.88 -45.2L1293.44 73.68" stroke="hsl(228.5, 77.2%, 51.5%)" stroke-width="1.5"></path><path d="M1293.44 73.68L1293.44 73.68" stroke="hsl(228.5, 77.2%, 51.5%)" stroke-width="1.5"></path><path d="M1293.44 73.68L1275.24 241.37" stroke="hsl(228.5, 77.2%, 51.5%)" stroke-width="1.5"></path><path d="M1293.44 73.68L1456.99 -72.78" stroke="hsl(228.5, 77.2%, 51.5%)" stroke-width="1.5"></path><path d="M1275.24 241.37L1275.24 241.37" stroke="hsl(228.5, 77.2%, 51.5%)" stroke-width="1.5"></path><path d="M1275.24 241.37L1401.11 338.56" stroke="hsl(228.5, 77.2%, 51.5%)" stroke-width="1.5"></path><path d="M1275.24 241.37L1393.26 45.07" stroke="hsl(228.5, 77.2%, 51.5%)" stroke-width="1.5"></path><path d="M1275.24 241.37L1305.87 513.21" stroke="hsl(228.5, 77.2%, 51.5%)" stroke-width="1.5"></path><path d="M1305.87 513.21L1305.87 513.21" stroke="hsl(228.5, 77.2%, 51.5%)" stroke-width="1.5"></path><path d="M1305.87 513.21L1448.11 532.52" stroke="hsl(228.5, 77.2%, 51.5%)" stroke-width="1.5"></path><path d="M1305.87 513.21L1401.11 338.56" stroke="hsl(228.5, 77.2%, 51.5%)" stroke-width="1.5"></path><path d="M1305.87 513.21L1140.05 342.38" stroke="hsl(228.5, 77.2%, 51.5%)" stroke-width="1.5"></path><path d="M1456.99 -72.78L1456.99 -72.78" stroke="hsl(228.5, 77.2%, 51.5%)" stroke-width="1.5"></path><path d="M1456.99 -72.78L1542.56 -82.14" stroke="hsl(228.5, 77.2%, 51.5%)" stroke-width="1.5"></path><path d="M1456.99 -72.78L1281.88 -45.2" stroke="hsl(228.5, 77.2%, 51.5%)" stroke-width="1.5"></path><path d="M1456.99 -72.78L1573.54 82.62" stroke="hsl(228.5, 77.2%, 51.5%)" stroke-width="1.5"></path><path d="M1456.99 -72.78L1594.53 221.93" stroke="hsl(228.5, 77.2%, 51.5%)" stroke-width="1.5"></path><path d="M1401.11 338.56L1401.11 338.56" stroke="hsl(228.5, 77.2%, 51.5%)" stroke-width="1.5"></path><path d="M1448.11 532.52L1448.11 532.52" stroke="hsl(228.5, 77.2%, 51.5%)" stroke-width="1.5"></path><path d="M1542.56 -82.14L1542.56 -82.14" stroke="hsl(228.5, 77.2%, 51.5%)" stroke-width="1.5"></path><path d="M1573.54 82.62L1573.54 82.62" stroke="hsl(228.5, 77.2%, 51.5%)" stroke-width="1.5"></path><path d="M1573.54 82.62L1594.53 221.93" stroke="hsl(228.5, 77.2%, 51.5%)" stroke-width="1.5"></path><path d="M1573.54 82.62L1542.56 -82.14" stroke="hsl(228.5, 77.2%, 51.5%)" stroke-width="1.5"></path><path d="M1573.54 82.62L1393.26 45.07" stroke="hsl(228.5, 77.2%, 51.5%)" stroke-width="1.5"></path><path d="M1594.53 221.93L1594.53 221.93" stroke="hsl(228.5, 77.2%, 51.5%)" stroke-width="1.5"></path><path d="M1605.64 385.15L1605.64 385.15" stroke="hsl(228.5, 77.2%, 51.5%)" stroke-width="1.5"></path><path d="M1605.64 385.15L1609.77 535.65" stroke="hsl(228.5, 77.2%, 51.5%)" stroke-width="1.5"></path><path d="M1605.64 385.15L1594.53 221.93" stroke="hsl(228.5, 77.2%, 51.5%)" stroke-width="1.5"></path><path d="M1605.64 385.15L1401.11 338.56" stroke="hsl(228.5, 77.2%, 51.5%)" stroke-width="1.5"></path><path d="M1605.64 385.15L1448.11 532.52" stroke="hsl(228.5, 77.2%, 51.5%)" stroke-width="1.5"></path><path d="M1609.77 535.65L1609.77 535.65" stroke="hsl(228.5, 77.2%, 51.5%)" stroke-width="1.5"></path><path d="M1609.77 535.65L1448.11 532.52" stroke="hsl(228.5, 77.2%, 51.5%)" stroke-width="1.5"></path><path d="M1609.77 535.65L1538.81 685.08" stroke="hsl(228.5, 77.2%, 51.5%)" stroke-width="1.5"></path><path d="M1609.77 535.65L1401.11 338.56" stroke="hsl(228.5, 77.2%, 51.5%)" stroke-width="1.5"></path><path d="M1609.77 535.65L1305.87 513.21" stroke="hsl(228.5, 77.2%, 51.5%)" stroke-width="1.5"></path><path d="M1538.81 685.08L1538.81 685.08" stroke="hsl(228.5, 77.2%, 51.5%)" stroke-width="1.5"></path><path d="M1538.81 685.08L1448.11 532.52" stroke="hsl(228.5, 77.2%, 51.5%)" stroke-width="1.5"></path><path d="M1538.81 685.08L1305.87 513.21" stroke="hsl(228.5, 77.2%, 51.5%)" stroke-width="1.5"></path><path d="M1538.81 685.08L1605.64 385.15" stroke="hsl(228.5, 77.2%, 51.5%)" stroke-width="1.5"></path><circle r="25" cx="358.46" cy="490.68" fill="url(#SvgjsRadialGradient2893)"></circle><circle r="25" cx="939.42" cy="503.04" fill="url(#SvgjsRadialGradient2893)"></circle><circle r="25" cx="1140.05" cy="342.38" fill="url(#SvgjsRadialGradient2893)"></circle><circle r="25" cx="1285.16" cy="639.79" fill="url(#SvgjsRadialGradient2893)"></circle><circle r="25" cx="1393.26" cy="45.07" fill="url(#SvgjsRadialGradient2893)"></circle><circle r="25" cx="1439.74" cy="672.8" fill="url(#SvgjsRadialGradient2893)"></circle><circle r="5" cx="-96.28" cy="642.71" fill="#8b9ad9"></circle><circle r="5" cx="106.69" cy="500.92" fill="#8b9ad9"></circle><circle r="5" cx="56.31" cy="683.58" fill="#8b9ad9"></circle><circle r="5" cx="235.36" cy="536.7" fill="#8b9ad9"></circle><circle r="5" cx="554.94" cy="545.37" fill="#8b9ad9"></circle><circle r="5" cx="541.94" cy="651.79" fill="#8b9ad9"></circle><circle r="5" cx="677.14" cy="370.42" fill="#8b9ad9"></circle><circle r="5" cx="690.8" cy="559.75" fill="#8b9ad9"></circle><circle r="5" cx="660.17" cy="644.75" fill="#8b9ad9"></circle><circle r="5" cx="828.21" cy="398" fill="#8b9ad9"></circle><circle r="5" cx="813.35" cy="544.22" fill="#8b9ad9"></circle><circle r="5" cx="800.25" cy="673.78" fill="#8b9ad9"></circle><circle r="5" cx="969.06" cy="350.93" fill="#8b9ad9"></circle><circle r="5" cx="987.88" cy="706.04" fill="#8b9ad9"></circle><circle r="5" cx="1104.18" cy="209.47" fill="#8b9ad9"></circle><circle r="5" cx="1110.95" cy="521.09" fill="#8b9ad9"></circle><circle r="5" cx="1102.8" cy="680.05" fill="#8b9ad9"></circle><circle r="5" cx="1281.88" cy="-45.2" fill="#8b9ad9"></circle><circle r="5" cx="1293.44" cy="73.68" fill="#8b9ad9"></circle><circle r="5" cx="1275.24" cy="241.37" fill="#8b9ad9"></circle><circle r="5" cx="1305.87" cy="513.21" fill="#8b9ad9"></circle><circle r="5" cx="1456.99" cy="-72.78" fill="#8b9ad9"></circle><circle r="5" cx="1401.11" cy="338.56" fill="#8b9ad9"></circle><circle r="5" cx="1448.11" cy="532.52" fill="#8b9ad9"></circle><circle r="5" cx="1542.56" cy="-82.14" fill="#8b9ad9"></circle><circle r="5" cx="1573.54" cy="82.62" fill="#8b9ad9"></circle><circle r="5" cx="1594.53" cy="221.93" fill="#8b9ad9"></circle><circle r="5" cx="1605.64" cy="385.15" fill="#8b9ad9"></circle><circle r="5" cx="1609.77" cy="535.65" fill="#8b9ad9"></circle><circle r="5" cx="1538.81" cy="685.08" fill="#8b9ad9"></circle></g><defs><mask id="SvgjsMask2891"><rect width="1440" height="560" fill="#ffffff"></rect></mask><linearGradient x1="15.28%" y1="-39.29%" x2="84.72%" y2="139.29%" gradientUnits="userSpaceOnUse" id="SvgjsLinearGradient2892"><stop stop-color="#0e2a47" offset="0"></stop><stop stop-color="rgba(68, 50, 30, 1)" offset="1"></stop></linearGradient><radialGradient id="SvgjsRadialGradient2893"><stop stop-color="#ffffff" offset="0.1"></stop><stop stop-color="#1735b3" offset="0.2"></stop><stop stop-color="rgba(23, 53, 179, 0)" offset="1"></stop></radialGradient></defs></svg>