<svg xmlns="http://www.w3.org/2000/svg" version="1.1" xmlns:xlink="http://www.w3.org/1999/xlink" xmlns:svgjs="http://svgjs.com/svgjs" width="1440" height="560" preserveAspectRatio="none" viewBox="0 0 1440 560"><g mask="url(&quot;#SvgjsMask1017&quot;)" fill="none"><rect width="1440" height="560" x="0" y="0" fill="rgba(243, 191, 153, 1)"></rect><path d="M0,488.947C122.35,500.844,251.485,618.68,355.545,553.239C459.302,487.988,404.603,319.383,450.407,205.694C493.181,99.525,604.279,25.767,614.005,-88.281C624.588,-212.377,600.083,-357.052,505.289,-437.835C410.698,-518.444,266.907,-473.446,143.623,-489.137C42.857,-501.962,-52.356,-534.1,-153.168,-521.641C-268.263,-507.417,-404.236,-503.565,-476.106,-412.548C-548.01,-321.487,-514.695,-188.763,-507.459,-72.962C-501.483,22.677,-469.106,109.372,-437.832,199.951C-402.989,300.866,-402.823,429.349,-313.722,488.161C-224.642,546.96,-106.235,478.617,0,488.947" fill="#eb9352"></path><path d="M1440 855.121C1497.39 845.733 1555.109 845.94 1607.369 820.432 1664.484 792.554 1722.22 758.604 1752.367 702.653 1783.317 645.212 1776.7649999999999 577.2139999999999 1773.531 512.046 1769.995 440.794 1786.692 353.003 1732.702 306.372 1677.476 258.675 1589.2640000000001 310.56600000000003 1518.705 291.957 1451.242 274.164 1403.624 190.52800000000002 1334.7069999999999 201.406 1266.596 212.15699999999998 1234.103 290.387 1190.456 343.769 1148.107 395.563 1093.782 442.635 1083.425 508.73199999999997 1073.025 575.103 1109.675 637.078 1134.73 699.412 1161.016 764.81 1170.519 849.596 1233.306 881.6220000000001 1296.463 913.836 1370.032 866.567 1440 855.121" fill="#fbece0"></path></g><defs><mask id="SvgjsMask1017"><rect width="1440" height="560" fill="#ffffff"></rect></mask></defs></svg>